<?xml version="1.0" encoding="utf-8"?>
<!-- Generator: Adobe Illustrator 27.5.0, SVG Export Plug-In . SVG Version: 6.00 Build 0)  -->
<svg version="1.1" xmlns="http://www.w3.org/2000/svg" xmlns:xlink="http://www.w3.org/1999/xlink" x="0px" y="0px"
	 viewBox="0 0 750 500" style="enable-background:new 0 0 750 500;" xml:space="preserve">
<g id="BACKGROUND">
	<rect y="0" style="fill:#FFFFFF;" width="750" height="500"/>
</g>
<g id="OBJECTS">
	<rect x="232.702" y="379.605" style="fill:#6F6CAC;" width="76.046" height="92.995"/>
	<path style="fill:#DD987B;" d="M591.901,104.058c0,0-2.516-3.644-2.731-3.848c-0.215-0.204,1.261-1.87-0.197-3.459
		c-1.458-1.589-3.356-3.633-3.705-3.313c-0.349,0.319,0.398,1.751,0.398,1.751s-3.663-3.13-4.833-3.454
		c-1.17-0.324-1.82,0.244-2.58,1.346c-0.562,0.816,5.643,9.971,6.095,10.037c0.452,0.066,3.745,4.589,3.745,4.589L591.901,104.058z"
		/>
	<path style="fill:#FFFBE0;" d="M592.546,102.816c-0.322-0.444-1.297-2.768-2.162-2.459c-0.865,0.308-5.619,3.471-5.535,4.211
		c0.084,0.74,1.872,2.778,2.11,2.471S592.546,102.816,592.546,102.816z"/>
	<rect x="228.058" y="379.605" style="fill:#6F6CAC;" width="86.101" height="8.408"/>
	<g>
		<path style="fill:#27223A;" d="M238.536,389.512c0,0,65.601-1.032,65.828-0.516c0.228,0.516-3.417,27.733-29.839,28.321
			C248.103,417.904,236.259,394.846,238.536,389.512z"/>
		<path style="fill:#FFFFFF;" d="M246.576,389.349c0,0,49.511-0.779,49.683-0.39c0.172,0.39-2.579,20.931-22.521,21.375
			C253.797,410.778,244.857,393.375,246.576,389.349z"/>
		<path style="fill:#CA4941;" d="M255.06,389.223c0,0,32.534-0.512,32.647-0.256c0.113,0.256-1.694,13.754-14.798,14.045
			S253.931,391.869,255.06,389.223z"/>
		<path style="fill:#FFFFFF;" d="M263.386,389.242c0,0,15.872-0.25,15.927-0.125c0.055,0.125-0.827,6.71-7.219,6.852
			C265.701,396.112,262.835,390.533,263.386,389.242z"/>
	</g>
	<g>
		<rect x="470.138" y="145.83" style="fill:#6F6CAC;" width="63.431" height="91.339"/>
		<path style="fill:#DD987B;" d="M547.268,85.359c0,0,1.644-4.111,1.809-4.358c0.164-0.247-1.644-1.544-0.576-3.416
			c1.069-1.873,2.467-4.287,2.878-4.053s0,1.796,0,1.796s2.878-3.864,3.947-4.44c1.069-0.576,1.829-0.166,2.814,0.74
			c0.729,0.671-3.29,10.975-3.716,11.139c-0.426,0.164-2.633,5.305-2.633,5.305L547.268,85.359z"/>
		<path style="fill:#FFFBE0;" d="M546.363,84.264c0.216-0.504,0.65-2.986,1.562-2.878c0.912,0.109,6.249,2.138,6.331,2.878
			c0.082,0.74-1.209,3.124-1.509,2.878C552.448,86.895,546.363,84.264,546.363,84.264z"/>
		<path style="fill:#DD987B;" d="M493.178,66.078c0,0,8.526-3.205,10.757,1.967s-0.263,16.615-6.432,15.464
			C491.088,82.312,488.619,67.781,493.178,66.078z"/>
		<path style="fill:#FFF9C6;" d="M491.413,65.096c0,0,2.794-3.866,9.923-2.421c7.129,1.445,2.247,3.925,3.404,4.817
			c1.157,0.892,1.735,5.587,0,7.611c-1.735,2.023-0.293-8.453-3.115-8.189c-1.268,0.119-2.601,3.564-7.803,1.249
			c-3.256-1.449-0.771,7.809-2.408,7.615C489.775,75.584,487.945,68.77,491.413,65.096z"/>
		<path style="fill:#DD987B;" d="M491.597,75.039c0,0-0.734-1.794-2.039-1.468c-1.305,0.326-0.734,3.915,1.02,4.323
			S492.123,75.891,491.597,75.039z"/>
		<path style="fill:#DD987B;" d="M503.55,75.039c0,0,0.734-1.794,2.039-1.468s0.734,3.915-1.02,4.323S503.024,75.891,503.55,75.039z
			"/>
		<path style="fill:#DD987B;" d="M503.177,77.94c0,0-1.288,9.206,0,10.833c1.288,1.627,19.841,3.58,21.143,6.51s0,38.733,0,38.733
			h-46.87c0,0,1.302-32.223,3.255-35.478c1.953-3.255,12.043-7.812,13.019-9.114s0-11.484,0-11.484H503.177z"/>
		<path style="fill:#FFFFFF;" d="M496.589,77.087c0,0,2.781-0.859,3.583-0.717s0.283,1.839-1.131,2.357
			C497.627,79.245,495.784,77.319,496.589,77.087z"/>
		<path style="fill:#27223A;" d="M494.497,73.129c0,0,0.454-0.681,1.022-0.151c0.568,0.53,0.681,2.342-0.378,2.174
			C494.081,74.983,494.048,73.465,494.497,73.129z"/>
		<path style="fill:#27223A;" d="M500.588,72.691c0,0,0.454-0.681,1.022-0.151c0.568,0.53,0.681,2.342-0.378,2.174
			S500.139,73.028,500.588,72.691z"/>
		<path style="fill:#D3726C;" d="M495.531,82.267c0,0,4.526,1.886,7.359-1.875c0,0-0.099,1.733-0.285,4.892
			C502.554,86.149,496.393,85.85,495.531,82.267z"/>
		<rect x="462.974" y="142.043" style="fill:#6F6CAC;" width="77.76" height="7.574"/>
		<path style="fill:#FFFBE0;" d="M491.97,90.727c0,0,3.482,1.775,7.811,1.579c3.761-0.17,4.271-2.828,4.959-2.799
			c2.661,0.112,12.231,3.687,15.665,7.471s1.369,42.847,1.369,42.847h-42.942c0,0-4.162-38.043-0.454-41.35
			C482.086,95.169,491.97,90.727,491.97,90.727z"/>
		<path style="fill:#CA4941;" d="M502.526,93.588c0,0-0.262,2.509-0.287,3.584s4.754,23.416,4.993,26.164
			c0.239,2.748-2.224,8.841-3.143,9.199s-5.48-3.942-5.529-5.496s2.01-28.075,1.339-28.672c-0.671-0.597-0.934-4.42-1.34-4.779
			C498.152,93.23,502.598,92.86,502.526,93.588z"/>
		<path style="fill:#27223A;" d="M489.44,91.919c0,0,12.837,31.284,14.385,30.208c1.548-1.075,3.422-32.525,5.214-31.709
			c1.792,0.816,13.488,2.177,15.28,4.865c1.792,2.688,0.408,46.76-0.428,46.76c-0.836,0-46.291,0-46.442,0
			c-0.151,0-0.924-38.195,0-42.257C478.374,95.725,489.44,91.919,489.44,91.919z"/>
		<path style="fill:#27223A;" d="M478.378,98.476c0,0-30.599,38.23-19.331,44.48c2.016,1.118,43.289,1.425,43.844-0.912
			c0.555-2.338-1.127-10.524-1.716-11.374c-0.589-0.85-30.729,1.37-29.729,0.037c1-1.333,14.667-17.843,14.333-19.667
			C485.445,109.215,478.378,98.476,478.378,98.476z"/>
		<path style="fill:#27223A;" d="M522.222,93.828c0,0,4.349,3.467,14.223,8.595c1.267,0.658,7.464-18.509,9.131-18.726
			c1.667-0.217,8.203,2.676,8.203,3.676s-8.479,32.435-11.073,33.768c-2.594,1.333-25.927-8.278-27.261-11.101
			C514.112,107.215,522.222,93.828,522.222,93.828z"/>
		<g>
			<path style="fill:#27223A;" d="M474.434,150.035c0,0,57.847-1.032,58.048-0.516s-3.013,27.733-26.312,28.321
				C482.87,178.427,472.426,155.369,474.434,150.035z"/>
			<path style="fill:#FFFFFF;" d="M481.524,149.872c0,0,43.659-0.779,43.811-0.39c0.152,0.39-2.274,20.931-19.859,21.375
				C487.891,171.301,480.008,153.898,481.524,149.872z"/>
			<path style="fill:#CA4941;" d="M489.005,149.746c0,0,28.689-0.512,28.788-0.256s-1.494,13.754-13.049,14.045
				C493.189,163.827,488.009,152.392,489.005,149.746z"/>
			<path style="fill:#FFFFFF;" d="M496.347,149.765c0,0,13.996-0.25,14.044-0.125c0.049,0.125-0.729,6.71-6.366,6.852
				C498.388,156.635,495.861,151.056,496.347,149.765z"/>
		</g>
		<path style="fill:#DD987B;" d="M503.263,134.555c0,0,4.347-0.841,4.644-0.836c0.296,0.005,0.409-2.218,2.562-2.332
			c2.153-0.114,4.94-0.245,4.965,0.228s-1.51,0.972-1.51,0.972s4.807,0.33,5.869,0.917c1.062,0.588,1.129,1.448,0.9,2.767
			c-0.169,0.976-11.01,3.17-11.379,2.901s-5.886,0.655-5.886,0.655L503.263,134.555z"/>
		<path style="fill:#FFFBE0;" d="M501.068,132.613c0.569-0.007,3.006-0.712,3.435,0.318c0.429,1.03,1.711,7.719,1.106,8.157
			c-0.605,0.438-3.449,0.178-3.405-0.261S501.068,132.613,501.068,132.613z"/>
	</g>
	<g>
		<path style="fill:#6E1F34;" d="M630.802,91.449c0,0,5.682,0.463,11.847,0c6.165-0.463,9.472-0.92,11.444-2.099
			s0.916-18.378-5.681-22.191c-6.597-3.813-15.193-2.274-19.145,4.89C625.314,79.213,625.041,91.245,630.802,91.449z"/>
		<path style="fill:#DD987B;" d="M634.807,83.032c0,0,1.288,9.206,0,10.833c-1.288,1.627-10.495,3.761-11.797,6.69
			c-1.302,2.929,6.905,17.523,6.905,17.523h11.676c0,0,14.271-14.269,12.318-17.523c-1.953-3.255-8.673-4.737-9.649-6.039
			c-0.976-1.302,0-11.484,0-11.484H634.807z"/>
		<path style="fill:#D3726C;" d="M642.453,87.359c0,0-4.526,1.886-7.359-1.875c0,0,0.099,1.733,0.285,4.892
			C635.43,91.241,641.591,90.942,642.453,87.359z"/>
		<path style="fill:#6E1F34;" d="M631.955,81.854c0,0-2.357-2.095-2.512-6.811c-0.155-4.716,6.044-10.047,11.3-9.903
			c7.966,0.218,9.118,3.534,10.206,9.477c1.087,5.942-3.688,11.476-9.773,11.733C635.092,86.606,631.955,81.854,631.955,81.854z"/>
		<path style="fill:#DD987B;" d="M643.243,70.715c0,0-8.74-2.567-10.583,2.755c-1.843,5.323,0.586,17.057,8.208,14.663
			C647.778,85.964,647.915,72.076,643.243,70.715z"/>
		<path style="fill:#DD987B;" d="M645.482,79.535c0,0,0.6-1.844,1.925-1.615s1.021,3.85-0.698,4.386
			C644.991,82.843,645.02,80.423,645.482,79.535z"/>
		<path style="fill:#DD987B;" d="M633.56,80.417c0,0-0.865-1.735-2.142-1.314s-0.443,3.959,1.336,4.236
			C634.533,83.617,634.148,81.227,633.56,80.417z"/>
		<path style="fill:#FFFFFF;" d="M640.654,81.945c0,0-2.837-0.651-3.626-0.451c-0.789,0.2-0.146,1.854,1.302,2.267
			C639.779,84.175,641.474,82.117,640.654,81.945z"/>
		<path style="fill:#27223A;" d="M642.448,77.844c0,0-0.503-0.646-1.03-0.076c-0.527,0.57-0.506,2.386,0.538,2.14
			C643,79.662,642.921,78.146,642.448,77.844z"/>
		<path style="fill:#27223A;" d="M636.342,77.857c0,0-0.503-0.646-1.03-0.076c-0.527,0.57-0.506,2.386,0.538,2.14
			C636.894,79.675,636.815,78.159,636.342,77.857z"/>
		<path style="fill:#6E1F34;" d="M634.573,67.346c0,0,4.01,10.43,11.852,8.813C651.44,75.124,641.398,64.186,634.573,67.346z"/>
		<path style="fill:#6E1F34;" d="M631.454,77.907c0,0,7.654-4.966,6.48-8.632S628.79,68.675,631.454,77.907z"/>
		<path style="fill:#DD9239;" d="M656.054,100.033c0,0,8.92,13.839,11.591,25.586c0.632,2.78-10.731,8.219-13.058,6.361
			c-2.327-1.858-7.941-11.351-7.759-12.604C647.009,118.122,656.054,100.033,656.054,100.033z"/>
		<path style="fill:#FFFBE0;" d="M644.311,96.556l-10.92,7.285c-2.295-4.021-1.917-8.147-1.917-8.147
			c-0.378-0.406-10.307,1.99-12.354,5.635c-1.031,1.837-3.855,13.851-2.56,19.145s-1.942,21.156,0.432,21.156
			c2.374,0,31.346-0.51,32.411-1.805c1.065-1.295,0.779-16.968,1.947-20.45c1.168-3.481,4.673-16.759,1.882-20.9
			C650.439,94.335,644.311,96.556,644.311,96.556z"/>
		<path style="fill:#DD987B;" d="M667.027,98.633c0,0,1.525-4.157,1.682-4.408c0.157-0.251-1.689-1.496-0.674-3.398
			c1.014-1.903,2.341-4.356,2.759-4.135c0.418,0.222,0.052,1.795,0.052,1.795s2.764-3.946,3.816-4.553s1.823-0.219,2.834,0.658
			c0.748,0.649-2.97,11.066-3.392,11.242c-0.421,0.177-2.478,5.379-2.478,5.379L667.027,98.633z"/>
		<path style="fill:#FFFBE0;" d="M673.868,99.55c0.112-0.537,1.176-2.821,0.366-3.254c-0.81-0.433-6.348-1.823-6.839-1.264
			c-0.491,0.56-0.797,3.254-0.41,3.223C667.373,98.225,673.868,99.55,673.868,99.55z"/>
		<path style="fill:#DD9239;" d="M617.699,101.204c0,0-8.481,8.635-13.663,15.019c-0.9,1.108-9.18-13.443-10.854-13.285
			c-1.673,0.158-7.405,4.429-7.183,5.404c0.222,0.975,15.463,29.745,18.288,30.47c2.825,0.725,17.056-16.263,17.729-19.312
			C622.691,116.451,617.699,101.204,617.699,101.204z"/>
		<path style="fill:#DD9239;" d="M648.64,95.995c0,0-12.151,23.227-19.541,22.859c-4.279-0.213-4.674-21.557-5.204-21.272
			c-0.53,0.285-5.633,1.841-7.802,5.65c-2.169,3.808-4.502,15.861-3.835,19.668c0.667,3.807,3.459,6.098,3.835,7.474
			s-1.469,14.32,0,15.458c3.369,2.609,35.917,1.674,38.882,1.292c2.965-0.382-1.361-20.701-1.127-24.224
			c0.235-3.523,4.331-18.865,2.204-22.865C653.927,96.033,648.64,95.995,648.64,95.995z"/>
		<path style="fill:#DD9239;" d="M664.423,96.617c0,0,10.93,3.234,10.98,4.465s-3.053,30.601-8.626,35.961
			c-2.361,2.27-11.402-2.806-12.191-5.063C653.797,129.723,664.423,96.617,664.423,96.617z"/>
		<rect x="608.103" y="145.83" style="fill:#6F6CAC;" width="63.431" height="91.339"/>
		<rect x="600.939" y="142.043" style="fill:#6F6CAC;" width="77.76" height="7.574"/>
		<g>
			<path style="fill:#27223A;" d="M669.213,150.035c0,0-57.847-1.032-58.048-0.516c-0.201,0.516,3.013,27.733,26.312,28.321
				C660.777,178.427,671.221,155.369,669.213,150.035z"/>
			<path style="fill:#FFFFFF;" d="M662.123,149.872c0,0-43.659-0.779-43.811-0.39c-0.152,0.39,2.274,20.931,19.859,21.375
				C655.756,171.301,663.639,153.898,662.123,149.872z"/>
			<path style="fill:#CA4941;" d="M654.642,149.746c0,0-28.689-0.512-28.788-0.256s1.494,13.754,13.049,14.045
				C650.458,163.827,655.638,152.392,654.642,149.746z"/>
			<path style="fill:#FFFFFF;" d="M647.3,149.765c0,0-13.996-0.25-14.044-0.125c-0.049,0.125,0.729,6.71,6.366,6.852
				S647.786,151.056,647.3,149.765z"/>
		</g>
		<path style="fill:#D57B37;" d="M616.094,130.372c0,0,2.299,0.102,10.282,1.477s13.919-1.977,16.076-0.738
			c2.157,1.238-3.381,6.21-8.049,7.724c-4.668,1.514-18.814,1.019-18.814,1.019L616.094,130.372z"/>
		<path style="fill:#D57B37;" d="M615.316,128.999c0,0-2.909-3.801-3.173-10.359c-0.264-6.558,3.221-6.965,1.414-7.671
			c-1.808-0.706-5.719,11.254-5.453,13.984c0.265,2.73,0.639,11.086,1.532,10.199C610.528,134.265,615.316,128.999,615.316,128.999z
			"/>
		<path style="fill:#D57B37;" d="M660.162,110.291c0,0-4.338,22.998-5.575,21.69c-1.238-1.308-1.368-13.101-1.238-15.784
			C653.478,113.513,660.423,108.929,660.162,110.291z"/>
	</g>
	<text transform="matrix(1 0 0 1 246.1396 441.701)" style="fill:#FFFFFF; font-family:'Gilroy-ExtraBold'; font-size:19.9314px;">VOTE</text>
	<g>
		<path style="fill:#27223A;" d="M195.469,302.081c0,0,1.038-0.757,2.863,0.53s1.25,1.816,3.126,2.496
			c1.876,0.681,2.481,1.437,2.481,3.102s0.378,3.631,1.362,4.917s-0.227,2.307-0.832,3.763c-0.605,1.457,1.74,1.986-0.303,4.256
			s-3.094,2.896-4.271,4.172s-3.564,0.085-5.529,0.519c-1.965,0.433-4.044,0.788-5.709,0.092c-1.664-0.697-2.799,0.121-4.161-1.158
			c-1.362-1.279-1.21-3.469-2.345-4.227c-1.135-0.758-1.967-3.486-1.437-4.846c0.53-1.36-0.478-3.099-0.163-4.915
			c0.315-1.816,2.648-3.858,3.448-4.539s0.396-2.194,1.998-2.95c1.601-0.757,2.873-0.454,4.242-0.605
			C191.607,302.534,192.068,300.492,195.469,302.081z"/>
		<path style="fill:#27223A;" d="M212.203,465.327c0,0-1.151,6.762,0.863,7.769c2.014,1.007,13.092,1.151,15.825,0.719
			s-8.528-5.611-8.508-7.337C220.404,464.752,212.203,465.327,212.203,465.327z"/>
		<path style="fill:#27223A;" d="M178.242,465.327c0,0-1.151,6.762,0.863,7.769c2.014,1.007,13.092,1.151,15.825,0.719
			s-8.528-5.611-8.508-7.337C186.442,464.752,178.242,465.327,178.242,465.327z"/>
		<path style="fill:#9B504F;" d="M188.973,311.564c0,0,8.526-3.205,10.757,1.967c2.231,5.172-0.263,16.615-6.432,15.464
			C186.882,327.799,184.414,313.267,188.973,311.564z"/>
		<path style="fill:#9B504F;" d="M187.391,320.526c0,0-0.734-1.794-2.039-1.468c-1.305,0.326-0.734,3.915,1.02,4.323
			C188.125,323.788,187.917,321.377,187.391,320.526z"/>
		<path style="fill:#9B504F;" d="M199.345,320.526c0,0,0.734-1.794,2.039-1.468c1.305,0.326,0.734,3.915-1.02,4.323
			C198.611,323.788,198.819,321.377,199.345,320.526z"/>
		<path style="fill:#9B504F;" d="M198.971,323.426c0,0-1.288,9.206,0,10.833s14.859,3.609,16.161,6.538
			c1.302,2.929,1.879,38.807,1.879,38.807l-43.767-0.103c0,0,1.302-32.223,3.255-35.478c1.953-3.255,12.043-7.812,13.019-9.114
			s0-11.484,0-11.484H198.971z"/>
		<path style="fill:#FFFFFF;" d="M192.384,322.573c0,0,2.781-0.859,3.583-0.717c0.801,0.141,0.283,1.839-1.131,2.357
			C193.421,324.732,191.579,322.805,192.384,322.573z"/>
		<path style="fill:#27223A;" d="M190.291,318.615c0,0,0.454-0.681,1.022-0.151s0.681,2.342-0.378,2.174
			S189.843,318.952,190.291,318.615z"/>
		<path style="fill:#27223A;" d="M196.382,318.178c0,0,0.454-0.681,1.022-0.151s0.681,2.342-0.378,2.174
			S195.933,318.514,196.382,318.178z"/>
		<path style="fill:#84363F;" d="M191.326,327.754c0,0,4.526,1.886,7.359-1.875c0,0-0.099,1.733-0.285,4.892
			C198.348,331.636,192.188,331.336,191.326,327.754z"/>
		<path style="fill:#27223A;" d="M218.467,386.488c0,0,6.056,78.37,1.917,79.99c-4.139,1.621-7.324,1.603-9.791,1.251
			c-6.583-0.94-10.116-68.707-11.621-68.418s-5.448,65.626-9.601,68.34c-1.081,0.707-9.445,0.078-12.03-0.175
			c-6.337-0.621-1.772-75.109-0.814-80.123C177.484,382.338,218.467,386.488,218.467,386.488z"/>
		<path style="fill:#E7B35D;" d="M186.201,336.028c0,0,8.065,6.653,11.393,6.179c3.329-0.474,4.163-6.682,4.163-6.682
			c1.842-0.579,8.884,1.987,13.375,5.274c4.491,3.287,4.428,47.347,4.27,48.097c-0.158,0.751-42.282,2.106-43.951,0
			c-1.669-2.106-2.207-44.499-2.207-44.499S179.4,336.028,186.201,336.028z"/>
		
			<rect x="196.001" y="369.032" transform="matrix(0.9186 -0.3952 0.3952 0.9186 -131.6199 111.8274)" style="fill:#E4E1CC;" width="19.276" height="12.75"/>
		<path style="fill:#9B504F;" d="M169.576,347.521c0,0-10,29.551-7.25,33.717c2.75,4.165,32.284-2.726,34.642-1.596
			c2.358,1.13,6.358-3.849,6.608-4.235s-7.232-2.941-7.232-2.941s3.221-0.773,4.19-1.803c1.703-1.809-4.186,0.022-4.186,0.022
			l-2.083,0.955h-18.524c0.25-2.869,5.518-18.213,5.768-19.463S169.576,347.521,169.576,347.521z"/>
		<path style="fill:#9B504F;" d="M217.845,342.592l15.304,7.601c0,0,5.719-23.728,7.208-28.917s2.629,0.564,2.047,2.671
			c0,0,1.533-1.044,3.219,3.111c0.704,1.734-0.193,2.205-1.583,4.527s-3.453,32.716-7.606,32.372
			c-4.267-0.353-20.436-5.32-21.1-9.852C214.671,349.573,217.845,342.592,217.845,342.592z"/>
		<path style="fill:#E7B35D;" d="M221.831,361.703c0,0,5.224-13.555,4.574-15.604c-0.65-2.049-16.381-8.456-17.179-8.555
			c-0.798-0.099-6.506,14.067-4.923,16.177C205.885,355.831,220.482,365.343,221.831,361.703z"/>
		<path style="fill:#E7B35D;" d="M163.433,361.703c0,0,14.517,4.521,17.333,4.039c2.817-0.482,6.788-29.917,5.435-29.714
			c-1.353,0.203-7.173,0.792-11.47,3.845C168.366,344.395,163.433,361.703,163.433,361.703z"/>
	</g>
	<g>
		<path style="fill:#27223A;" d="M104.263,294.115c0,0,18.272,42.771,25.771,51.546l-5.304,121.815h18.348V294.115H104.263z"/>
		<rect x="47.87" y="286.701" style="fill:#6F6CAC;" width="10.85" height="185.9"/>
		<rect x="143.077" y="286.701" style="fill:#6F6CAC;" width="10.85" height="185.9"/>
		<rect x="47.87" y="290.72" style="fill:#6F6CAC;" width="106.058" height="6.789"/>
	</g>
	<g>
		<path style="fill:#D67D70;" d="M57.712,62.847c0,0,2.93-12.034,5.581-12.088c2.651-0.053,5.358,1.171,5.559,2.22
			c0.201,1.049-1.861,4.696-2.462,4.751c-1.546,0.143-1.602-0.274-1.546,0.143c0.055,0.417-1.072,8.263-1.635,7.329
			C62.645,64.268,57.712,62.847,57.712,62.847z"/>
		<path style="fill:#D67D70;" d="M129.179,73.326c0,0-4.302-14.158-5.378-14.137c-1.076,0.021-5.579,2.037-5.949,3.651
			c-0.37,1.613,0.707,4.437,2.185,4.571s2.178,6.453,3.442,7.394C124.743,75.746,129.179,73.326,129.179,73.326z"/>
		<path style="fill:#FFFBE0;" d="M119.89,70.302c0,0,7.26-3.12,8.067-2.447c0.807,0.672,1.572,1.737,1.055,2.463
			c-0.517,0.726-8.584,3.625-9.121,2.646C119.352,71.986,119.89,70.302,119.89,70.302z"/>
		<path style="fill:#FFFBE0;" d="M58.169,58.018c0,0,7.857,0.846,8.229,1.827c0.373,0.982,0.516,2.285-0.29,2.664
			c-0.807,0.379-9.258-1.055-9.246-2.172C56.874,59.221,58.169,58.018,58.169,58.018z"/>
		<rect x="64.324" y="160.897" style="fill:#6F6CAC;" width="63.431" height="91.339"/>
		<path style="fill:#D67D70;" d="M87.364,81.145c0,0,8.526-3.205,10.757,1.967c2.231,5.172-0.263,16.615-6.432,15.464
			C85.273,97.379,82.805,82.847,87.364,81.145z"/>
		<path style="fill:#FFF9C6;" d="M85.598,80.163c0,0,2.794-3.866,9.923-2.421s2.247,3.925,3.404,4.817s1.735,5.587,0,7.611
			c-1.735,2.023-0.293-8.453-3.115-8.189c-1.268,0.119-2.601,3.564-7.803,1.249c-3.256-1.449-0.771,7.809-2.408,7.615
			C83.961,90.65,82.13,83.836,85.598,80.163z"/>
		<path style="fill:#D67D70;" d="M85.782,90.106c0,0-0.734-1.794-2.039-1.468c-1.305,0.326-0.734,3.915,1.02,4.323
			C86.516,93.368,86.308,90.957,85.782,90.106z"/>
		<path style="fill:#D67D70;" d="M97.736,90.106c0,0,0.734-1.794,2.039-1.468c1.305,0.326,0.734,3.915-1.02,4.323
			C97.002,93.368,97.21,90.957,97.736,90.106z"/>
		<path style="fill:#D67D70;" d="M97.362,93.007c0,0-1.288,9.206,0,10.833c1.288,1.627,19.841,3.58,21.143,6.51
			c1.302,2.929,0,38.733,0,38.733h-46.87c0,0,1.302-32.223,3.255-35.478s12.043-7.812,13.019-9.114c0.976-1.302,0-11.484,0-11.484
			H97.362z"/>
		<path style="fill:#FFFFFF;" d="M90.775,92.153c0,0,2.781-0.859,3.583-0.717c0.801,0.141,0.283,1.839-1.131,2.357
			C91.812,94.312,89.97,92.385,90.775,92.153z"/>
		<path style="fill:#27223A;" d="M88.682,88.195c0,0,0.454-0.681,1.022-0.151s0.681,2.342-0.378,2.174S88.234,88.532,88.682,88.195z
			"/>
		<path style="fill:#27223A;" d="M94.773,87.758c0,0,0.454-0.681,1.022-0.151s0.681,2.342-0.378,2.174S94.324,88.094,94.773,87.758z
			"/>
		<path style="fill:#CC5561;" d="M89.717,97.334c0,0,4.526,1.886,7.359-1.875c0,0-0.099,1.733-0.285,4.892
			C96.739,101.216,90.579,100.916,89.717,97.334z"/>
		<rect x="57.159" y="157.11" style="fill:#6F6CAC;" width="77.76" height="7.574"/>
		<path style="fill:#FFFBE0;" d="M86.155,105.794c0,0,3.482,1.775,7.811,1.579c3.761-0.17,4.271-2.828,4.959-2.799
			c2.661,0.112,13.042,0.158,16.476,3.942c3.434,3.784-0.111,45.75-0.111,45.75l-42.273,0.627c0,0-1.835-37.981,1.873-41.288
			S86.155,105.794,86.155,105.794z"/>
		<path style="fill:#CA4941;" d="M96.711,108.655c0,0-0.262,2.509-0.287,3.584c-0.025,1.075,4.754,23.416,4.993,26.164
			c0.239,2.748-2.224,8.841-3.143,9.199c-0.919,0.358-5.48-3.942-5.529-5.496c-0.049-1.553,2.011-28.075,1.339-28.672
			s-0.933-4.42-1.34-4.779C92.338,108.296,96.784,107.927,96.711,108.655z"/>
		<path style="fill:#27223A;" d="M83.626,106.985c0,0,12.837,31.284,14.385,30.208c1.548-1.075,3.819-33.435,5.611-32.62
			c1.792,0.816,11.022-0.331,14.883,5.776c1.727,2.731,0.408,46.76-0.428,46.76s-46.291,0-46.442,0s-0.924-38.195,0-42.257
			C72.56,110.791,83.626,106.985,83.626,106.985z"/>
		<path style="fill:#27223A;" d="M83.626,106.985c0,0-20.572-9.704-22.357-11.526c-1.785-1.823,7.65-31.656,6.12-32.931
			c-1.53-1.275-11.012-3.253-12.032-2.233s-10.917,40.666-9.642,43.378c1.275,2.712,22.263,17.497,25.921,17.372
			C75.293,120.919,83.626,106.985,83.626,106.985z"/>
		<path style="fill:#27223A;" d="M106.401,106.385c0,0,19.503-4.797,21.354-6.582c1.85-1.785-8.656-25.036-8.375-26.311
			c0.281-1.275,10.735-4.385,10.735-4.385c1.02,1.683,13.259,35.967,12.239,39.132c-1.02,3.164-26.008,12.659-28.813,12.16
			C110.736,119.899,106.401,106.385,106.401,106.385z"/>
		<g>
			<path style="fill:#27223A;" d="M68.455,165.556c0,0,57.847-1.032,58.048-0.516c0.201,0.516-3.013,27.733-26.312,28.321
				S66.447,170.89,68.455,165.556z"/>
			<path style="fill:#FFFFFF;" d="M75.545,165.393c0,0,43.659-0.779,43.811-0.39c0.152,0.39-2.274,20.931-19.859,21.375
				C81.912,186.822,74.029,169.419,75.545,165.393z"/>
			<path style="fill:#CA4941;" d="M83.026,165.267c0,0,28.689-0.512,28.788-0.256c0.1,0.256-1.494,13.754-13.049,14.045
				C87.21,179.348,82.03,167.913,83.026,165.267z"/>
			<path style="fill:#FFFFFF;" d="M90.368,165.286c0,0,13.996-0.25,14.044-0.125c0.049,0.125-0.729,6.71-6.366,6.852
				C92.41,172.156,89.882,166.577,90.368,165.286z"/>
		</g>
	</g>
	<g>
		<path style="fill:#DD987B;" d="M591.333,395.717c0,0-3.77,81.028-4.636,82.537c-0.866,1.509,4.427,2.333,5.291,1.063
			c0.863-1.27,6.799-15.444,8.104-22.987c1.305-7.543,1.532-9.37,1.061-18.501s13.391-25.553,12.376-34.637
			C613.529,403.192,591.547,391.747,591.333,395.717z"/>
		<path style="fill:#DD987B;" d="M605.661,398c0,0,12.368,78.621,11.831,80.254c-0.536,1.634,4.698,1.231,5.281-0.167
			c0.584-1.398,3.819-15.099,3.534-22.732c-0.285-7.633-0.112-7.5-2.47-16.38s6.447-31.871,3.565-40.609
			C627.403,398.366,605.047,394.065,605.661,398z"/>
		<path style="fill:#D3726C;" d="M588.776,447.195c0,0,11.849-0.318,12.595-1.696c0.747-1.378-0.218-7.669-0.218-7.669
			s-11.802-1.631-11.802-1.63L588.776,447.195z"/>
		<path style="fill:#D3726C;" d="M612.989,445.503c0,0,12.048-1.885,12.089-1.716c0.041,0.169-1.445-6.461-1.622-7.587
			s-11.841,0.243-11.693,1.212C611.91,438.38,612.989,445.503,612.989,445.503z"/>
		<path style="fill:#27223A;" d="M560.563,333.028c0,0,17.75,22.283,19.55,21.757c1.8-0.526,23.028-1.469,23.131,0.029
			c0.103,1.498-0.721,12.509-1.979,14.254c-1.258,1.746-25.841,3.676-30.371,2.088c-4.53-1.588-15.554-12.676-18.887-15.676
			S560.563,333.028,560.563,333.028z"/>
		<path style="fill:#6E1F34;" d="M601.628,334.865c0,0,5.682,0.463,11.847,0c6.165-0.463,9.472-0.92,11.444-2.099
			c1.972-1.179,0.916-18.378-5.681-22.191c-6.597-3.813-15.193-2.274-19.145,4.89C596.14,322.63,595.867,334.661,601.628,334.865z"
			/>
		<path style="fill:#27223A;" d="M560.662,371.984c0,0,6.671,100.058,5.123,100.38c-1.547,0.322-9.132,1.137-12.34,0.585
			c-3.208-0.552-14.987-76.607-14.987-76.607s-8.346,75.945-10.332,76.607c-1.987,0.662-10.103,0.634-13.392,0.187
			c-3.288-0.447,0.218-94.723,1.381-97.752C517.279,372.356,560.662,371.984,560.662,371.984z"/>
		<path style="fill:#DD9239;" d="M624.918,367.677c0,0-36.736-4.918-36.296,4.306c0.094,1.963-3.954,26.669-3.951,61.47
			c0,5.54,40.371,5.139,46.78,2.813S633.453,371.309,624.918,367.677z"/>
		<path style="fill:#27223A;" d="M592.425,478.188c0,0,1.232,4.251-0.27,5.002c-1.502,0.751-10.91,1.03-12.949,0.708
			c-2.039-0.322,7.506-4.356,7.491-5.644S592.425,478.188,592.425,478.188z"/>
		<path style="fill:#27223A;" d="M517.959,472.456c0,0-1.151,6.786,0.863,7.797c2.014,1.011,13.092,1.155,15.825,0.722
			c2.733-0.433-8.528-5.631-8.508-7.364C526.159,471.878,517.959,472.456,517.959,472.456z"/>
		<path style="fill:#27223A;" d="M557.391,472.456c0,0-1.151,6.786,0.863,7.797c2.014,1.011,13.092,1.155,15.825,0.722
			c2.733-0.433-8.528-5.631-8.508-7.364C565.591,471.878,557.391,472.456,557.391,472.456z"/>
		<path style="fill:#D67D70;" d="M530.463,301.636c0,0,8.526-3.205,10.757,1.967c2.231,5.172-0.263,16.615-6.432,15.464
			C528.372,317.87,525.903,303.339,530.463,301.636z"/>
		<path style="fill:#FFF9C6;" d="M528.697,300.654c0,0,2.794-3.866,9.923-2.421c7.129,1.445,2.247,3.925,3.404,4.817
			c1.157,0.892,1.735,5.587,0,7.611c-1.735,2.023-0.293-8.453-3.115-8.189c-1.268,0.119-2.601,3.564-7.803,1.249
			c-3.256-1.449-0.771,7.809-2.408,7.615C527.059,311.142,525.229,304.328,528.697,300.654z"/>
		<path style="fill:#D67D70;" d="M528.881,310.597c0,0-0.734-1.794-2.039-1.468c-1.305,0.326-0.734,3.915,1.02,4.323
			C529.615,313.86,529.407,311.449,528.881,310.597z"/>
		<path style="fill:#D67D70;" d="M540.834,310.597c0,0,0.734-1.794,2.039-1.468s0.734,3.915-1.02,4.323
			C540.1,313.86,540.308,311.449,540.834,310.597z"/>
		<path style="fill:#D67D70;" d="M540.461,313.498c0,0-1.288,9.206,0,10.833s18.479,8.321,19.781,11.251s1.361,33.992,1.361,33.992
			h-46.87c0,0,1.302-32.223,3.255-35.478c1.953-3.255,12.043-7.812,13.019-9.114c0.976-1.302,0-11.484,0-11.484H540.461z"/>
		<path style="fill:#FFFFFF;" d="M533.873,312.645c0,0,2.781-0.859,3.583-0.717c0.801,0.141,0.283,1.839-1.131,2.357
			C534.911,314.803,533.068,312.877,533.873,312.645z"/>
		<path style="fill:#27223A;" d="M531.781,308.687c0,0,0.454-0.681,1.022-0.151c0.568,0.53,0.681,2.342-0.378,2.174
			C531.365,310.541,531.332,309.023,531.781,308.687z"/>
		<path style="fill:#27223A;" d="M537.872,308.249c0,0,0.454-0.681,1.022-0.151c0.568,0.53,0.681,2.342-0.378,2.174
			C537.455,310.103,537.423,308.586,537.872,308.249z"/>
		<path style="fill:#D3726C;" d="M532.815,317.825c0,0,4.526,1.886,7.359-1.875c0,0-0.099,1.733-0.285,4.892
			C539.838,321.707,533.677,321.408,532.815,317.825z"/>
		<path style="fill:#FFFBE0;" d="M529.254,326.285c0,0,3.482,1.775,7.811,1.579c3.761-0.17,4.271-2.828,4.959-2.799
			c2.661,0.112,11.606,4.134,15.039,7.918s1.544,42.4,1.544,42.4h-42.492c0,0-4.162-38.043-0.454-41.35
			C519.37,330.727,529.254,326.285,529.254,326.285z"/>
		<path style="fill:#CA4941;" d="M539.81,329.146c0,0-0.262,2.509-0.287,3.584s4.754,23.416,4.993,26.164
			c0.239,2.748-2.224,8.841-3.143,9.199s-5.48-3.942-5.529-5.496c-0.049-1.553,2.01-28.075,1.339-28.672
			c-0.671-0.597-0.933-4.42-1.34-4.779C535.436,328.788,539.882,328.418,539.81,329.146z"/>
		<path style="fill:#27223A;" d="M526.724,327.477c0,0,12.837,31.284,14.385,30.208c1.548-1.075,3.422-32.525,5.214-31.709
			c1.792,0.816,11.316,0.077,15.082,8.224c1.356,2.933,0.606,43.402-0.23,43.402c-0.836,0-45.321,15.409-46.442,10.171
			c-8.604-40.208-5.622-49.136-1.372-53.573C516.244,331.191,526.724,327.477,526.724,327.477z"/>
		<path style="fill:#DD987B;" d="M567.311,336.746c0,0-0.13-4.426-0.2-4.714s2.075-0.884,1.715-3.01s-0.842-4.874-1.308-4.795
			c-0.466,0.078-0.618,1.686-0.618,1.686s-1.373-4.618-2.179-5.526c-0.806-0.908-2.576-0.406-3.812,0.106
			c-0.915,0.379,0.23,11.058,0.574,11.359c0.344,0.301,0.648,5.887,0.648,5.887L567.311,336.746z"/>
		<path style="fill:#DD987B;" d="M605.633,326.448c0,0,1.288,9.206,0,10.833c-1.288,1.627-10.495,3.761-11.797,6.69
			s6.905,17.523,6.905,17.523h11.676c0,0,14.271-14.269,12.318-17.523c-1.953-3.255-8.673-4.737-9.649-6.039
			c-0.977-1.302,0-11.484,0-11.484H605.633z"/>
		<path style="fill:#D3726C;" d="M613.278,330.775c0,0-4.526,1.886-7.359-1.875c0,0,0.099,1.733,0.285,4.892
			C606.256,334.658,612.417,334.358,613.278,330.775z"/>
		<path style="fill:#FFFBE0;" d="M616.752,338.636c0,0,4.364-0.731,8.717,1.464c4.459,2.248-0.424,18.436-1.592,21.917
			c-1.168,3.481-0.882,19.155-1.947,20.45s-30.037,1.805-32.411,1.805c-2.374,0,0.863-15.862-0.432-21.156
			c-1.295-5.294,1.529-17.307,2.56-19.145c2.047-3.646,11.976-6.042,12.354-5.635c0,0-2.21,7.124,1.323,9.067
			C608.86,349.348,616.752,338.636,616.752,338.636z"/>
		<path style="fill:#6E1F34;" d="M602.781,325.271c0,0-2.357-2.095-2.512-6.811c-0.155-4.716,6.044-10.047,11.3-9.903
			c7.966,0.218,9.118,3.534,10.206,9.477c1.087,5.942-3.688,11.476-9.773,11.733C605.918,330.022,602.781,325.271,602.781,325.271z"
			/>
		<path style="fill:#DD987B;" d="M614.068,314.131c0,0-8.74-2.567-10.583,2.755c-1.843,5.323,0.586,17.057,8.208,14.663
			C618.604,329.38,618.741,315.493,614.068,314.131z"/>
		<path style="fill:#DD987B;" d="M616.307,322.951c0,0,0.6-1.844,1.925-1.615c1.326,0.229,1.021,3.85-0.698,4.386
			C615.816,326.259,615.846,323.839,616.307,322.951z"/>
		<path style="fill:#DD987B;" d="M604.386,323.834c0,0-0.865-1.735-2.142-1.314c-1.277,0.422-0.443,3.959,1.336,4.236
			C605.359,327.033,604.974,324.644,604.386,323.834z"/>
		<path style="fill:#FFFFFF;" d="M611.479,325.362c0,0-2.837-0.651-3.626-0.451c-0.789,0.2-0.146,1.854,1.302,2.267
			C610.604,327.591,612.299,325.534,611.479,325.362z"/>
		<path style="fill:#27223A;" d="M613.274,321.26c0,0-0.503-0.646-1.03-0.076s-0.506,2.386,0.538,2.14
			C613.826,323.079,613.746,321.563,613.274,321.26z"/>
		<path style="fill:#27223A;" d="M607.168,321.274c0,0-0.503-0.646-1.03-0.076c-0.527,0.57-0.506,2.386,0.538,2.14
			C607.72,323.092,607.64,321.576,607.168,321.274z"/>
		<path style="fill:#6E1F34;" d="M605.399,310.762c0,0,4.01,10.43,11.852,8.813C622.266,318.541,612.224,307.602,605.399,310.762z"
			/>
		<path style="fill:#6E1F34;" d="M602.28,321.323c0,0,7.654-4.966,6.48-8.632C607.586,309.025,599.616,312.091,602.28,321.323z"/>
		<path style="fill:#DD9239;" d="M621.169,338.636c0,0-12.151,23.227-19.541,22.859c-4.279-0.213-4.674-21.557-5.204-21.272
			s-4.733,1.313-5.364,5.281c-0.688,4.328-6.939,16.23-6.272,20.037c0.667,3.807,3.459,6.098,3.835,7.474
			c0.376,1.375-1.469,14.32,0,15.458c3.369,2.609,31.555-2.658,34.519-3.04s3.002-16.369,3.236-19.891
			c0.234-3.523,4.331-18.865,2.204-22.865C626.455,338.675,621.169,338.636,621.169,338.636z"/>
		<path style="fill:#D67D70;" d="M574.337,381.298c0,0,2.216-1.737,4.039-2.186c1.823-0.45,3.193-0.604,3.2,0.105
			c0.007,0.71-1.06,1.039,0.324,1.668c1.383,0.629,2.973,0.964,3.182,2.069s-0.096,2.181-1.231,2.905s-6.387,1.208-8.445,1.089
			s-7.741-0.57-9.092-0.314s0.534-6.589,0.534-6.589L574.337,381.298z"/>
		<path style="fill:#DD987B;" d="M583.289,378.181c0,0-3.908-0.48-4.913,0.93c-1.005,1.41-4.208,6.671-2.97,7.836
			c1.238,1.165,2.347,1.638,4.554,0.538c2.208-1.101,4.355-3.799,5.176-3.866c0.822-0.068,6.469,0.811,7.846,0.722
			c1.377-0.09,1.252-6.427,1.252-6.427L583.289,378.181z"/>
		<path style="fill:#FFFBE0;" d="M568.008,378.729c0,0,5.338,0.629,4.79,2.311c-0.548,1.682-1.746,6.755-3.179,7.067
			c-1.432,0.312-3.396,0.722-3.792,0C565.43,387.384,568.008,378.729,568.008,378.729z"/>
		<path style="fill:#27223A;" d="M523.307,334.2l12.537,28.398c0,0,34.259,13.185,33.467,15.316c0,0-3.484,11.888-5.682,11.206
			c-5.6-1.738-35.707-5.439-39.988-8.478s-13.415-29.878-14.431-32.219C508.194,346.08,523.307,334.2,523.307,334.2z"/>
		<path style="fill:#D57B37;" d="M631.354,383.922c0,0-2.467,7.128-9.424,9.461c-6.957,2.333-35.328,0-35.328,0
			s-1.082-5.928,0.478-6.714c1.56-0.786,24.33,1.503,30.196,0.133C623.142,385.432,631.354,383.922,631.354,383.922z"/>
		<path style="fill:#DD9239;" d="M590.739,377.177c0,0-0.864,7.563,0.144,9.788c1.007,2.225,43.821,0.645,45.258-6.582
			c2-10.064-3.5-38.847-10.671-40.283c-3.981-0.797-7.235,12.254-6.865,14.685c0.37,2.431,0.395,17.299-1.785,17.198
			S591.082,373.502,590.739,377.177z"/>
		<path style="fill:#FFFBE0;" d="M590.883,386.965c0,0-2.838-0.398-3.803-0.296s-1.4-8.827-0.005-9.102
			c1.395-0.276,3.039-1.078,3.664-0.39S590.883,386.965,590.883,386.965z"/>
		<path style="fill:#FFFBE0;" d="M561.255,338.172c0,0-0.252-2.855-0.57-3.771s8.283-3.356,8.867-2.059
			c0.584,1.297,1.736,2.717,1.207,3.481C570.228,336.587,561.255,338.172,561.255,338.172z"/>
		<path style="fill:#D57B37;" d="M597.64,371.984c0,0,16.872-2.767,19.907-3.869c3.035-1.102,1.057-13.329,1.057-13.329
			s-1.662,10.098-5.129,11.582C610.008,367.852,596.247,372.27,597.64,371.984z"/>
		<path style="fill:#DD987B;" d="M586.997,476.023c0,0-0.3,2.231-3.538,4.589c-1.753,1.277,1.39,0.953,3.759,0.766
			c2.2-0.174,3.153-0.531,3.153-0.531c1.833-0.579,2.306-2.961,2.427-3.451C592.975,476.684,586.997,476.023,586.997,476.023z"/>
		<path style="fill:#27223A;" d="M623.139,478.062c0,0,0.503,4.403-0.999,5.154c-1.502,0.751-9.53,1.003-11.569,0.682
			c-2.039-0.322,7.506-4.356,7.491-5.644S623.139,478.062,623.139,478.062z"/>
		<path style="fill:#DD987B;" d="M618.362,476.023c0,0-0.3,2.231-3.538,4.589c-1.753,1.277,1.39,0.953,3.759,0.766
			c2.2-0.174,3.153-0.531,3.153-0.531c1.833-0.579,1.297-3.524,1.419-4.015C623.332,476.12,618.362,476.023,618.362,476.023z"/>
		<path style="fill:#DD9239;" d="M592.065,343.082c0,0-12.2,15.466-13.45,15.384c-1.25-0.081-5.357-22.377-7.857-22.644
			c-2.5-0.266-8.34,0.966-9.503,2.349s7.126,39.477,10.135,38.682c5.561-1.469,22.848-11.519,24.25-13.462
			C597.042,361.448,592.065,343.082,592.065,343.082z"/>
		<path style="fill:#D57B37;" d="M586.602,369.868c0,0-1.4-1.553-1.931-6.477c-0.531-4.925,4.632-14.762,3.951-14.97
			c-0.681-0.208-8.532,8.046-10.007,10.046s-2.772,16.731-0.08,15.338C581.227,372.412,586.602,369.868,586.602,369.868z"/>
	</g>
	<g>
		<path style="fill:#DD987B;" d="M384.577,352.669c0,0,10.5-9.806,10.833-8.977c0.333,0.829-1.667,2.749-1.667,2.749
			s4.5-4.027,5.333-2.64c0.833,1.387,0,2.024-0.833,4.289s-9,8.192-10.5,10.395C386.244,360.687,384.577,352.669,384.577,352.669z"
			/>
		<path style="fill:#DD987B;" d="M327.178,384.42c0,0-3.77,81.028-4.636,82.537c-0.866,1.509,4.427,2.333,5.291,1.063
			c0.863-1.27,6.799-15.444,8.104-22.987c1.305-7.543,1.532-9.37,1.061-18.501s13.391-25.553,12.376-34.637
			C349.374,391.895,327.392,380.45,327.178,384.42z"/>
		<path style="fill:#DD987B;" d="M341.507,386.703c0,0,12.368,78.621,11.831,80.254c-0.537,1.634,4.698,1.231,5.281-0.167
			c0.584-1.398,3.819-15.099,3.534-22.732c-0.285-7.633-0.112-7.5-2.47-16.38c-2.358-8.88,6.447-31.871,3.565-40.609
			C363.249,387.069,340.892,382.768,341.507,386.703z"/>
		<path style="fill:#D3726C;" d="M325.249,423.88c0,0,10.415,0.693,11.955,0c0,0,3.111-8.529,3.659-9.694
			c0.548-1.165-15.556-1.812-15.614-0.832S325.249,423.88,325.249,423.88z"/>
		<path style="fill:#D3726C;" d="M347.163,423.2c0,0,12.128-0.33,12.17-1.017s0.956-8.121,1.433-9.308
			c0.477-1.187-14.879-1.313-15.034,0C345.577,414.187,347.163,423.2,347.163,423.2z"/>
		<path style="fill:#DD987B;" d="M328.579,367.025c0,0-7.572,12.581-10.996,12.581c-3.424,0-26.3-15.831-29.718-17.08
			c-3.417-1.249-0.066-3.828,2.522-4.881c1.635-0.666,20.329,7.62,23.772,7.62c1.341,0,7.591-21.541,15.107-21.464
			C332.917,343.838,331.599,362.406,328.579,367.025z"/>
		<path style="fill:#CA4941;" d="M296.221,357.298c0,0-3.812,6.464-3.069,9.029s22.412,15.699,24.991,14.31
			s11.996-16.603,13.337-19.309c1.34-2.706-1.495-18.62-4.676-17.588c-7.273,2.359-11.239,17.545-13.818,18.494
			S296.221,357.298,296.221,357.298z"/>
		<path style="fill:#6E1F34;" d="M326.899,317.151c0,0-0.423-5.433,10.03-6.553c10.453-1.12,12.696,7.644,16.428,13.715
			c3.732,6.072,2.874,10.787,5.729,14.496s-0.877,10.989-8.717,13.416s-9.923-5.829-17.92-6.961
			C324.452,344.132,323.963,327.064,326.899,317.151z"/>
		<path style="fill:#DD987B;" d="M289.399,357.313c-0.312-0.191-1.818-0.626-4.014-0.334c-2.196,0.293-6.824,2.827-4.903,3.193
			C282.403,360.538,292.034,358.923,289.399,357.313z"/>
		<path style="fill:#DD987B;" d="M340.734,315.83c0,0-8.947-1.712-10.267,3.763c-1.321,5.476,3.078,16.33,8.963,14.149
			C345.549,331.474,345.516,316.735,340.734,315.83z"/>
		<path style="fill:#6E1F34;" d="M342.308,314.563c0,0-3.409-3.336-10.19-0.703s-1.549,4.249-2.538,5.325s-0.762,5.801,1.291,7.5
			c2.053,1.699-1.146-8.38,1.681-8.598c1.27-0.098-1.736-0.844,2.998-4.008c2.963-1.98,6.989,11.481,8.57,11.012
			C345.701,324.621,346.349,317.595,342.308,314.563z"/>
		<path style="fill:#DD987B;" d="M343.814,324.393c0,0,0.419-1.893,1.76-1.793c1.341,0.1,1.388,3.734-0.271,4.433
			C343.644,327.733,343.44,325.321,343.814,324.393z"/>
		<path style="fill:#DD987B;" d="M332.033,326.421c0,0-1.028-1.644-2.259-1.101c-1.231,0.543-0.059,3.983,1.738,4.087
			S332.696,327.171,332.033,326.421z"/>
		<path style="fill:#DD987B;" d="M332.894,329.217c0,0,2.832,8.854,1.838,10.676c-0.993,1.822-9.705,5.487-10.491,8.595
			c-0.786,3.108,9.779,16.098,9.779,16.098l11.506-1.981c0,0,11.643-16.483,9.166-19.359c-2.477-2.876-9.351-3.197-10.534-4.314
			c-1.183-1.117-1.949-11.318-1.949-11.318L332.894,329.217z"/>
		<path style="fill:#FFFFFF;" d="M339.241,327.258c0,0-2.887-0.374-3.653-0.099s0.033,1.86,1.515,2.131
			S340.074,327.35,339.241,327.258z"/>
		<path style="fill:#27223A;" d="M340.631,323.003c0,0-0.563-0.594-1.032,0.024c-0.469,0.618-0.274,2.424,0.742,2.078
			C341.356,324.759,341.131,323.258,340.631,323.003z"/>
		<path style="fill:#27223A;" d="M334.555,323.605c0,0-0.563-0.594-1.032,0.024c-0.469,0.618-0.274,2.424,0.742,2.078
			C335.28,325.361,335.054,323.86,334.555,323.605z"/>
		<path style="fill:#D3726C;" d="M341.163,332.184c0,0-4.14,2.626-7.57-0.599c0,0,0.392,1.691,1.111,4.772
			C334.9,337.201,340.921,335.861,341.163,332.184z"/>
		<path style="fill:#6E1F34;" d="M334.956,313.464c0,0,3.803,10.449,8.816,9.406C348.786,321.828,340,310.716,334.956,313.464z"/>
		<path style="fill:#6E1F34;" d="M330.45,324.217c0,0,6.731-5.534,5.209-9.069C334.137,311.612,326.908,315.285,330.45,324.217z"/>
		<path style="fill:#27223A;" d="M346.67,339.645c0,0-3.39,7.576-9.338,7.491c-5.004-0.071-2.938-6.798-3.495-6.565
			c-3.337,1.394-8.15,1.95-7.776,5.528c0.219,2.095-8.561,12.454-3.56,21.08c2.733,4.715,1.009,21.221,3.36,20.892
			s33.929-3.672,34.803-5.102c0.875-1.43-4.121-18.98-5.321-22.45c-2.679-7.748,2.686-13.56-0.652-17.274
			S346.67,339.645,346.67,339.645z"/>
		<path style="fill:#27223A;" d="M358.987,374.134c0,0-34.696,0.493-34.789,1.886c-0.093,1.394-2.593,33.051-1.733,36.935
			c0.861,3.884,38.422,1.721,44.831,0.07C373.706,411.374,361.935,379.532,358.987,374.134z"/>
		<path style="fill:#27223A;" d="M359.44,466.099c0,0,0.858,5.043-0.644,5.795c-1.502,0.751-9.765,0.858-11.804,0.537
			c-2.039-0.322,6.361-4.185,6.346-5.473C353.323,465.669,359.44,466.099,359.44,466.099z"/>
		<path style="fill:#27223A;" d="M328.645,466.099c0,0,0.858,5.043-0.644,5.795c-1.502,0.751-9.765,0.858-11.804,0.537
			s6.361-4.185,6.346-5.473C322.528,465.669,328.645,466.099,328.645,466.099z"/>
		<rect x="268.899" y="358.89" style="fill:#E4E1CC;" width="19.276" height="12.75"/>
		<path style="fill:#DD987B;" d="M294.365,359.143c-0.305-0.147-2.562-1.684-5.709-2.123c-3.147-0.439-7.832,2.794-8.784,3.63
			c-0.952,0.835,1.902,0.022,4.521,0c1.195-0.01,1.589,2.192,4.171,2.192c2.582,0,0.493,0.218,1.835,1.019
			C291.742,364.661,294.365,359.143,294.365,359.143z"/>
		<path style="fill:#CA4941;" d="M349.427,340.564c0,0-2.622,26.683,0,36.95s0.119,19.413,3.237,20.347
			c3.118,0.933,13.198-0.664,14.878-3.226c1.68-2.561-9.775-25.991-9.648-30.05c0.128-4.058,4.198-18.071,2.147-20.065
			C357.195,341.754,350.548,337.416,349.427,340.564z"/>
		<path style="fill:#CA4941;" d="M384.913,351.094c0,0,5.777,4.478,4.657,7.796c-1.12,3.317-13.367,15.335-18.07,16.513
			c-4.703,1.178-14.466-11.069-16.462-13.7s3.149-19.654,5.005-17.182c1.855,2.471,10.448,13.15,12.107,12.921
			C373.809,357.213,383.941,350.264,384.913,351.094z"/>
		<path style="fill:#CA4941;" d="M319.135,399.597c0,0,4.122,1.19,6.115,0c1.993-1.19,0.337-22.81-1.051-26.507
			s-1.679-14.27,0-18.832c1.679-4.562,4.152-11.633,4.152-11.633s-8.224,4.89-9.216,10.84c-0.992,5.95,2.26,17.259,1.824,22.017
			C320.523,380.24,316.778,399.12,319.135,399.597z"/>
	</g>
	<g>
		<path style="fill:#9B504F;" d="M658.714,387.004c0,0-3.77,81.028-4.636,82.537c-0.866,1.509,4.427,2.333,5.291,1.063
			s6.799-15.444,8.104-22.987c1.305-7.543,1.532-9.37,1.061-18.501c-0.471-9.131,13.391-25.553,12.376-34.637
			C680.91,394.479,658.928,383.034,658.714,387.004z"/>
		<path style="fill:#9B504F;" d="M673.042,389.287c0,0,12.368,78.621,11.831,80.254c-0.537,1.634,4.698,1.231,5.281-0.167
			c0.584-1.398,3.819-15.099,3.534-22.732c-0.285-7.633-0.112-7.5-2.47-16.38c-2.358-8.88,6.447-31.871,3.565-40.609
			C694.785,389.653,672.428,385.352,673.042,389.287z"/>
		<path style="fill:#27223A;" d="M690.975,468.683c0,0,0.858,5.043-0.644,5.795c-1.502,0.751-9.765,0.858-11.804,0.537
			s6.361-4.185,6.346-5.473C684.859,468.254,690.975,468.683,690.975,468.683z"/>
		<path style="fill:#27223A;" d="M660.18,468.683c0,0,0.858,5.043-0.644,5.795c-1.502,0.751-9.765,0.858-11.804,0.537
			s6.361-4.185,6.346-5.473C654.064,468.254,660.18,468.683,660.18,468.683z"/>
		<path style="fill:#CA4941;" d="M684.119,462.549c0,0,7.04,1.511,9.365,0c2.325-1.511-0.875-21.961,0-27.782
			c1.887-12.543,2.378-51.053,1.887-51.921c-0.491-0.868-35.505-3.479-37.598-0.912s-7.617,80.678-3.854,81.286
			s8.931,2.785,9.867,1.073c3.687-6.742,4.516-29.854,6.682-35.595s5.701-19.354,5.701-19.354s1.928,22.341,3.228,28.067
			C680.698,443.137,683.057,462.35,684.119,462.549z"/>
		<path style="fill:#9B504F;" d="M672.053,344.023c0,0-14.276-10.955-17.026-14.877s-5.056-37.008-5.824-37.576
			s-4.078-5.788-4.658-2.738s0.232,40.5,1.482,44.196c1.25,3.696,12,22.818,15.25,21.757
			C664.527,353.724,672.053,344.023,672.053,344.023z"/>
		<path style="fill:#9B504F;" d="M689.336,345.891c0,0,18.285-16.578,20.191-20.091s-1.522-29.069,0.5-31.627
			c2.022-2.558,5.422-5.953,5.159-5.155c-0.263,0.797,4.841,21.706,4.841,38.407c0,6.774-22.68,31.003-25.09,28.901
			C692.527,354.224,689.336,345.891,689.336,345.891z"/>
		<path style="fill:#27223A;" d="M676.962,332.49c0,0-4.441-1.182-4.861-5.115c-0.419-3.933,1.852-11.032,8.058-12.431
			s9.796,1.386,11.777,5.318s-0.279,12.429-6.246,14.102C679.724,336.039,676.962,332.49,676.962,332.49z"/>
		<path style="fill:#9B504F;" d="M685.722,320.5c0,0-8.526-3.205-10.757,1.967c-2.231,5.172,0.263,16.615,6.432,15.464
			C687.812,336.734,690.281,322.202,685.722,320.5z"/>
		<path style="fill:#9B504F;" d="M687.304,329.461c0,0,0.734-1.794,2.039-1.468c1.305,0.326,0.734,3.915-1.02,4.323
			C686.57,332.723,686.778,330.312,687.304,329.461z"/>
		<path style="fill:#9B504F;" d="M675.35,329.461c0,0-0.734-1.794-2.039-1.468c-1.305,0.326-0.734,3.915,1.02,4.323
			C676.084,332.723,675.876,330.312,675.35,329.461z"/>
		<path style="fill:#9B504F;" d="M675.723,332.362c0,0,1.288,9.206,0,10.833c-1.288,1.627-10.495,3.761-11.797,6.69
			s6.905,17.523,6.905,17.523h11.676c0,0,14.271-14.269,12.318-17.523c-1.953-3.255-8.673-4.737-9.649-6.039
			c-0.976-1.302,0-11.484,0-11.484H675.723z"/>
		<path style="fill:#FFFFFF;" d="M682.311,331.508c0,0-2.781-0.859-3.583-0.717c-0.801,0.141-0.283,1.839,1.131,2.357
			C681.274,333.667,683.116,331.74,682.311,331.508z"/>
		<path style="fill:#27223A;" d="M684.403,327.551c0,0-0.454-0.681-1.022-0.151s-0.681,2.342,0.378,2.174
			S684.852,327.887,684.403,327.551z"/>
		<path style="fill:#27223A;" d="M678.313,327.113c0,0-0.454-0.681-1.022-0.151c-0.568,0.53-0.681,2.342,0.378,2.174
			C678.729,328.967,678.762,327.449,678.313,327.113z"/>
		<path style="fill:#84363F;" d="M683.369,336.689c0,0-4.526,1.886-7.359-1.875c0,0,0.099,1.733,0.285,4.892
			C676.346,340.571,682.507,340.272,683.369,336.689z"/>
		<path style="fill:#27223A;" d="M680.429,317.188c0,0,1.975,10.942,7.092,10.765C692.639,327.776,685.866,315.335,680.429,317.188z
			"/>
		<path style="fill:#27223A;" d="M674.163,327.02c0,0,7.573-4.312,6.672-8.054C679.935,315.223,672.188,317.616,674.163,327.02z"/>
		<path style="fill:#27223A;" d="M686.93,345.111c0,0-4.407,7.033-10.286,6.124c-4.946-0.764-2.722-6.407-2.552-6.986
			c0.502-1.704-10.307,1.99-12.354,5.635c-1.032,1.837-5.26,11.189-3.966,16.483c1.295,5.294-2.374,17.905,0,17.905
			c2.374,0,36.171,1.295,37.235,0c1.064-1.295-2.382-17.286-1.214-20.767c1.168-3.481,4.845-8.737,2.055-12.878
			C693.058,346.486,686.93,345.111,686.93,345.111z"/>
		<rect x="647.064" y="284.096" style="fill:#6F6CAC;" width="66" height="25.032"/>
		<path style="fill:#9B504F;" d="M712.678,285.82c0,0-3.274,1.208-4.208,2.677c-0.934,1.469,3.43-0.866,3.715-0.826
			c0.285,0.04-3.439,0.633-3.559,1.396c-0.12,0.763,4.054,1.292,4.054,1.292s-4.269-1.406-3.677-0.867
			c0.592,0.54,3.271,3.721,4.808,3.253c1.538-0.468,2.399-5.352,0.659-7.255c-1.74-1.903-3.461-3.547-3.455-2.336
			C711.021,284.365,712.678,285.82,712.678,285.82z"/>
		<path style="fill:#9B504F;" d="M647.548,286.861c0,0,3.098,1.607,3.841,3.18c0.744,1.574-3.295-1.287-3.583-1.282
			c-0.288,0.004,3.333,1.057,3.357,1.829s-4.183,0.776-4.183,0.776s4.411-0.863,3.757-0.402s-3.709,3.284-5.177,2.628
			c-1.467-0.656-1.713-5.609,0.251-7.28s3.876-3.088,3.72-1.887C649.374,285.624,647.548,286.861,647.548,286.861z"/>
		<circle style="fill:#27223A;" cx="692.055" cy="316.773" r="3.997"/>
		<path style="fill:#27223A;" d="M686.93,345.111c0,0,7.843-8.658,11.47-7.648c3.627,1.011,6.102,7.897,6.99,10.954
			c0.887,3.057-9.807,17.573-13.335,15.565S686.93,345.111,686.93,345.111z"/>
		<path style="fill:#27223A;" d="M674.093,344.25c0,0-8.565-10.751-13.065-11.013s-10.429,4.869-10.714,8.178
			c-0.286,3.309,6.97,14.271,9.592,15.04C662.527,357.224,668.908,345.525,674.093,344.25z"/>
		
			<text transform="matrix(1 0 0 1 656.0518 303.3101)" style="fill:#FFFFFF; font-family:'Gilroy-ExtraBold'; font-size:19.9314px;">VOTE</text>
	</g>
	<g>
		<path style="fill:#6F6CAC;" d="M470.138,280.071c6.934-0.841,11.918-1.682,15.467-2.414c-0.807-5.953-1.872-10.987-3.243-12.411
			c-3.935-4.089-22.575,3.785-28.692,1.893c-6.117-1.893-22.668-6.562-41.577,9.498c0,0,0.932,4.632,2.26,10.524
			c4.953-3.54,17.049-11.498,26.006-11.757C451.89,275.071,450.906,282.404,470.138,280.071z"/>
		<path style="fill:#FFFFFF;" d="M470.138,280.071c-19.232,2.333-18.248-5-29.778-4.667c-8.957,0.259-21.053,8.218-26.006,11.757
			c0.778,3.45,1.69,7.324,2.634,10.967c5.899-3.302,17.306-9.059,25.511-9.296c11.53-0.333,12.629,6.292,31.861,3.959
			c5.586-0.678,9.634-1.452,12.576-2.211c-0.327-4.147-0.766-8.759-1.33-12.924C482.056,278.389,477.072,279.23,470.138,280.071z"/>
		<path style="fill:#CA4941;" d="M442.499,288.832c-8.206,0.237-19.612,5.995-25.511,9.296c1.863,7.194,3.841,13.454,5.113,13.579
			c3.017,0.297,22.128-14.674,34.053-12.464c10.089,1.87,16.993,7.555,31.567,3.914c0,0-0.237-5.632-0.785-12.577
			c-2.943,0.758-6.99,1.533-12.576,2.211C455.128,295.125,454.029,288.499,442.499,288.832z"/>
		<path style="fill:#D3726C;" d="M431.599,352.388c0,0,15.021,9.673,16.445,11.84c1.425,2.167,0.605,9.558-3.961,12.351
			c-4.566,2.794-17.579-20.443-17.579-23.38C426.504,350.261,431.599,352.388,431.599,352.388z"/>
		<path style="fill:#27223A;" d="M471.211,464.364c0,0-1.151,6.762,0.863,7.769s13.092,1.151,15.825,0.719
			c2.733-0.432-8.528-5.611-8.508-7.337C479.412,463.789,471.211,464.364,471.211,464.364z"/>
		<path style="fill:#27223A;" d="M442.826,464.364c0,0-1.151,6.762,0.863,7.769c2.014,1.007,13.092,1.151,15.825,0.719
			c2.733-0.432-8.528-5.611-8.508-7.337C451.027,463.789,442.826,464.364,442.826,464.364z"/>
		<path style="fill:#DD987B;" d="M458.227,310.602c0,0,8.526-3.205,10.757,1.967c2.231,5.172-0.263,16.615-6.432,15.464
			C456.137,326.836,453.668,312.304,458.227,310.602z"/>
		<path style="fill:#6E1F34;" d="M456.462,309.62c0,0,2.794-3.866,9.923-2.421c7.129,1.445,2.247,3.925,3.404,4.817
			c1.157,0.892,1.735,5.587,0,7.611c-1.735,2.023-0.293-8.453-3.115-8.189c-1.268,0.119-2.601,3.564-7.803,1.249
			c-3.256-1.449-0.771,7.809-2.408,7.615C454.824,320.107,452.994,313.293,456.462,309.62z"/>
		<path style="fill:#DD987B;" d="M456.645,319.563c0,0-0.734-1.794-2.039-1.468c-1.305,0.326-0.734,3.915,1.02,4.323
			C457.38,322.825,457.172,320.414,456.645,319.563z"/>
		<path style="fill:#DD987B;" d="M468.599,319.563c0,0,0.734-1.794,2.039-1.468s0.734,3.915-1.02,4.323
			C467.865,322.825,468.073,320.414,468.599,319.563z"/>
		<path style="fill:#DD987B;" d="M468.226,322.464c0,0-1.288,9.206,0,10.833c1.288,1.627,14.859,3.609,16.161,6.538
			s1.061,38.893,1.061,38.893h-40.391c0,0-1.526-36.213,0.427-39.468c1.953-3.255,12.313-4.01,13.289-5.312
			c0.976-1.302,0-11.484,0-11.484H468.226z"/>
		<path style="fill:#FFFFFF;" d="M461.638,321.61c0,0,2.781-0.859,3.583-0.717s0.283,1.839-1.131,2.357
			C462.676,323.769,460.833,321.842,461.638,321.61z"/>
		<path style="fill:#27223A;" d="M459.546,317.653c0,0,0.454-0.681,1.022-0.151c0.568,0.53,0.681,2.342-0.378,2.174
			C459.13,319.507,459.097,317.989,459.546,317.653z"/>
		<path style="fill:#27223A;" d="M465.636,317.215c0,0,0.454-0.681,1.022-0.151c0.568,0.53,0.681,2.342-0.378,2.174
			C465.22,319.069,465.188,317.551,465.636,317.215z"/>
		<path style="fill:#D3726C;" d="M460.58,326.791c0,0,4.526,1.886,7.359-1.875c0,0-0.099,1.733-0.285,4.892
			C467.603,330.673,461.442,330.374,460.58,326.791z"/>
		<path style="fill:#CA4941;" d="M487.721,385.525c0,0-1.739,77.792-5.878,79.412c-4.139,1.621-12.598,0-12.598,0
			c-1.479-2.692-1.019-66.59-2.524-66.301s-11.827,63.438-15.878,66.301c0,0-5.846,2.287-10.333,0
			c-5.673-2.891,4.313-73.534,5.271-78.548C446.739,381.375,487.721,385.525,487.721,385.525z"/>
		<path style="fill:#E7B35D;" d="M455.456,335.071c0,0,4.392,4.474,8.804,3.905c3.335-0.43,6.624-3.616,8.466-4.196
			c1.842-0.579,7.171,1.768,11.661,5.055c4.491,3.287,3.372,49.661,3.214,50.412c-0.158,0.75-40.36,0.353-42.029-1.753
			c-1.669-2.106-3.074-45.061-3.074-45.061S448.654,335.071,455.456,335.071z"/>
		<path style="fill:#6E1F34;" d="M457.06,315.95c0,0,0.351,6.024,2.213,8.024s3.231,2.559,6.326,0.942
			c3.096-1.617,3.008-9.065,3.098-8.054c0.09,1.01,1.187,5.045,0,8.204c-1.187,3.159-2.846,3.937-7.704,3.048
			c-4.858-0.889-3.578-8.939-4.965-10.058S457.06,315.95,457.06,315.95z"/>
		
			<rect x="425.504" y="271.405" transform="matrix(0.9644 -0.2644 0.2644 0.9644 -72.5739 124.5715)" style="fill:#27223A;" width="2.001" height="120.995"/>
		<path style="fill:#DD987B;" d="M490.853,354.621c0,0-13.156,19.495-18.489,21.618c-5.333,2.123-31.824-8.669-35.672-7.175
			c-3.849,1.494-4.676-1.255-5.042-3.97c-0.388-2.872,1.986-5.471,7.719-4.076c5.733,1.396,26.655,5.601,28.571,3.21
			c1.916-2.391,12.247-18.709,12.247-18.709L490.853,354.621z"/>
		<path style="fill:#DD987B;" d="M426.504,347.829c0,0,3.672-2.248,7.005-0.926c3.333,1.322,5,6.111,3.333,7.883
			c-1.667,1.772-7,1.736-8,3.087C427.843,359.224,424.318,348.767,426.504,347.829z"/>
		<path style="fill:#E7B35D;" d="M469.789,358.461c0,0,14.235,9.244,16.704,7.261c2.47-1.983,8.782-12.238,6.79-19.236
			c-1.774-6.23-14.11-10.855-18.377-11.566C474.906,334.92,466.802,358.318,469.789,358.461z"/>
		<path style="fill:#E7B35D;" d="M455.456,335.071c0,0-13.197,1.334-16.68,11.415c-1.271,3.679,2.857,13.971,5.344,14.671
			s11.349-6.906,12.898-10.561S455.456,335.071,455.456,335.071z"/>
	</g>
	<g>
		<path style="fill:#27223A;" d="M65.409,459.38c0,0-4.604,5.084-3.447,7.015c1.157,1.932,10.422,8.006,12.959,9.111
			s-4.176-9.314-3.232-10.76C72.633,463.301,65.409,459.38,65.409,459.38z"/>
		<path style="fill:#27223A;" d="M107.533,465.327c0,0-1.151,6.762,0.863,7.769s13.092,1.151,15.825,0.719
			c2.733-0.432-8.528-5.611-8.508-7.337C115.733,464.752,107.533,465.327,107.533,465.327z"/>
		<path style="fill:#E7B35D;" d="M114.407,384.875c0,0,4.166,21.946,5.397,42.425c1.186,19.739-0.55,38.04-1.157,37.935
			c-1.236-0.214-10.869,1.548-14.384,0c-1.739-0.766,0.642-17.198-1.799-34.401c-2.493-17.572-6.836-35.121-6.836-35.121
			s-4.209,28.48-5.875,33.147c-1.667,4.667-12.824,36.927-13.807,37.17c-2.027,0.5-12.838-5.79-14.171-7.79
			c-1.333-2,11.302-29.962,11.217-32.689c-0.181-5.759-0.137-38.062-0.137-38.062L114.407,384.875z"/>
		<path style="fill:#DD987B;" d="M91.606,311.564c0,0,8.526-3.205,10.757,1.967c2.231,5.172-0.263,16.615-6.432,15.464
			C89.516,327.799,87.047,313.267,91.606,311.564z"/>
		<path style="fill:#27223A;" d="M88.835,310.582c0,0,7.231-8.019,14.333,0.772c0.918,1.136,1.735,7.211,0,9.234
			s-0.293-8.453-3.115-8.189c-1.268,0.119-2.601,3.564-7.803,1.249c-3.256-1.449-0.771,7.809-2.408,7.615
			C88.203,321.07,85.367,314.256,88.835,310.582z"/>
		<path style="fill:#DD987B;" d="M90.024,320.526c0,0-0.734-1.794-2.039-1.468c-1.305,0.326-0.734,3.915,1.02,4.323
			C90.759,323.788,90.551,321.377,90.024,320.526z"/>
		<path style="fill:#DD987B;" d="M101.978,320.526c0,0,0.734-1.794,2.039-1.468c1.305,0.326,0.734,3.915-1.02,4.323
			C101.244,323.788,101.452,321.377,101.978,320.526z"/>
		<path style="fill:#DD987B;" d="M101.605,323.426c0,0-1.288,9.206,0,10.833c1.288,1.627,13.077,7.057,14.379,9.987
			s-3.95,35.341-3.95,35.341l-36.156-0.085c0,0-1.876-34.684,0.077-37.939s13.467-4.572,14.443-5.874
			c0.976-1.302,1.754-12.263,1.754-12.263H101.605z"/>
		<path style="fill:#27223A;" d="M92.925,318.615c0,0,0.454-0.681,1.022-0.151s0.681,2.342-0.378,2.174
			S92.476,318.952,92.925,318.615z"/>
		<path style="fill:#27223A;" d="M99.015,318.178c0,0,0.454-0.681,1.022-0.151s0.681,2.342-0.378,2.174
			S98.567,318.514,99.015,318.178z"/>
		<path style="fill:#D3726C;" d="M93.959,327.754c0,0,4.526,1.886,7.359-1.875c0,0-0.099,1.733-0.285,4.892
			C100.982,331.636,94.821,331.336,93.959,327.754z"/>
		<path style="fill:#D3726C;" d="M120.122,347.521c0,0,2.208,5.979,5.096,16.439c0.668,2.418-5.898,13.691-6.571,12.848
			c-4.127-5.168-6.833-20.32-6.606-23.04C112.267,351.048,120.122,347.521,120.122,347.521z"/>
		<path style="fill:#CA4941;" d="M88.835,336.158c0,0,5.098,5.879,8.451,5.631c3.353-0.247,6.301-6.05,6.301-6.05
			c1.877-0.453,7.081,2.24,11.339,5.824c4.257,3.584-0.331,46.106-0.331,46.106c-23.35,3.044-40.218,2.034-41.74-0.18
			c-1.523-2.214-0.012-45.166-0.012-45.166S82.049,335.697,88.835,336.158z"/>
		<path style="fill:#CA4941;" d="M112.027,366.034c0,0,11.497-5.278,13.238-7.611c1.741-2.333-7.242-19.575-18.048-21.822
			C107.217,336.601,107.719,367.183,112.027,366.034z"/>
		<path style="fill:#DD987B;" d="M127.717,344.554c0,0,4.505-3.488,6.319-1.222c1.813,2.267,1.984,3.353,2.211,4.189
			c0.227,0.836-5.542,3.986-5.542,3.986s1.873,27.202-2.384,28.098c-6.685,1.408-13.536,1.846-7.991-16.108
			C121.144,360.863,125.353,346.834,127.717,344.554z"/>
		
			<rect x="68.798" y="403.509" transform="matrix(0.9283 -0.3719 0.3719 0.9283 -146.8258 58.5802)" style="fill:#E4E1CC;" width="19.276" height="12.75"/>
		<path style="fill:#DD987B;" d="M67.118,351.507c0.441,0.915-7.103,15.257-6.172,23.9c0.649,6.027,13.373,33.431,14.598,34.478
			c1.225,1.046,6.41-2.004,6.715-3.529s-3.118-2.84-3.694-4.775c-0.576-1.935-5.559-25.098-5.254-27.446
			c0.305-2.348,6.154-13.712,6.188-15.245C79.534,357.357,67.118,351.507,67.118,351.507z"/>
		<path style="fill:#CA4941;" d="M63.184,359.365c0,0,18.756,8.079,20.586,6.413s5.919-30.154,3.024-29.564
			c-2.895,0.59-9.627,2.62-13.951,6.109S63.184,359.365,63.184,359.365z"/>
		<circle style="fill:#27223A;" cx="87.759" cy="308.702" r="3.848"/>
		<path style="fill:#E7B35D;" d="M88.421,400.382c0,0,7.91-0.228,10.17,0c2.26,0.228,0-6.929,0-6.929l-10.17,0.942V400.382z"/>
		<path style="fill:#27223A;" d="M90.398,318.262c0,0,1.231,5.683,2.254,4.808c1.023-0.875,1.882-2.422,4.987-2.422
			c2.345,0,2.823,1.191,2.823,1.191c1.2-0.407,1.602-4.151,1.614-4.016c0.012,0.135,0.639,1.631,0.639,1.631
			s0.265,7.986-2.253,9.073c-3.562,1.538-7.325,0.223-8.856-1.597s-2.163-7.03-2.201-7.913
			C89.368,318.135,90.398,318.262,90.398,318.262z"/>
		<path style="fill:#FFFFFF;" d="M95.017,322.573c0,0,2.781-0.859,3.583-0.717c0.801,0.141,0.283,1.839-1.131,2.357
			C96.054,324.732,94.212,322.805,95.017,322.573z"/>
	</g>
	<g>
		<path style="fill:#9B504F;" d="M326.624,129.775c0,0-12.174,4.924-15.918,17.318c-1.394,4.615,8.969,6.028,11.411,2.175
			c2.441-3.853,9.575-10.238,8.366-12.838S330.124,126.415,326.624,129.775z"/>
		<path style="fill:#E7B35D;" d="M340.864,120.886c0,0-11.566-0.596-23.259,12.93c-2.136,2.471,9.42,8.959,11.92,10.292
			s13.426-10.949,14.842-12.05S345.564,120.133,340.864,120.886z"/>
		<path style="fill:#27223A;" d="M323.976,250.399c0,0,1.151,6.762-0.863,7.769s-13.092,1.151-15.825,0.719
			c-2.733-0.432,8.528-5.611,8.508-7.337C315.776,249.823,323.976,250.399,323.976,250.399z"/>
		<path style="fill:#27223A;" d="M366.659,250.399c0,0,1.151,6.762-0.863,7.769c-2.014,1.007-13.092,1.151-15.825,0.719
			c-2.733-0.432,8.528-5.611,8.508-7.337C358.459,249.823,366.659,250.399,366.659,250.399z"/>
		<path style="fill:#9B504F;" d="M355.929,96.636c0,0-8.526-3.205-10.757,1.967c-2.231,5.172,0.263,16.615,6.432,15.464
			C358.019,112.87,360.488,98.339,355.929,96.636z"/>
		<path style="fill:#27223A;" d="M357.694,95.654c0,0-2.794-3.866-9.923-2.421c-7.129,1.445-2.247,3.925-3.404,4.817
			c-1.157,0.892-1.735,5.587,0,7.611c1.735,2.023,0.293-8.453,3.115-8.189c1.268,0.119,2.601,3.564,7.803,1.249
			c3.256-1.449,0.771,7.809,2.408,7.615C359.332,106.142,361.162,99.328,357.694,95.654z"/>
		<path style="fill:#9B504F;" d="M357.511,105.597c0,0,0.734-1.794,2.039-1.468c1.305,0.326,0.734,3.915-1.02,4.323
			S356.984,106.449,357.511,105.597z"/>
		<path style="fill:#9B504F;" d="M345.557,105.597c0,0-0.734-1.794-2.039-1.468c-1.305,0.326-0.734,3.915,1.02,4.323
			S346.083,106.449,345.557,105.597z"/>
		<path style="fill:#9B504F;" d="M345.93,108.498c0,0,1.288,9.206,0,10.833s-14.859,3.609-16.161,6.538s0.514,35.03,0.514,35.03
			l36.704-2.381c0,0,3.368-26.168,1.415-29.423c-1.953-3.255-12.043-7.812-13.019-9.114c-0.976-1.302,0-11.484,0-11.484H345.93z"/>
		<path style="fill:#FFFFFF;" d="M352.518,107.645c0,0-2.781-0.859-3.583-0.717s-0.283,1.839,1.131,2.357
			C351.48,109.803,353.323,107.877,352.518,107.645z"/>
		<path style="fill:#27223A;" d="M354.61,103.687c0,0-0.454-0.681-1.022-0.151c-0.568,0.53-0.681,2.342,0.378,2.174
			C355.026,105.541,355.059,104.023,354.61,103.687z"/>
		<path style="fill:#27223A;" d="M348.52,103.249c0,0-0.454-0.681-1.022-0.151c-0.568,0.53-0.681,2.342,0.378,2.174
			C348.936,105.103,348.968,103.585,348.52,103.249z"/>
		<path style="fill:#84363F;" d="M353.576,112.825c0,0-4.526,1.886-7.359-1.875c0,0,0.099,1.733,0.285,4.892
			C346.553,116.707,352.714,116.408,353.576,112.825z"/>
		<path style="fill:#27223A;" d="M326.435,171.559c0,0-14.778,78.37-10.639,79.99c0,0,8.35,1.668,9.909,0.996
			c6.106-2.634,18.72-68.452,20.225-68.163s4.901,65.3,8.953,68.163c0,0,9.178,0.744,12.104,0c6.171-1.57,2.347-75.107,1.388-80.122
			C367.417,167.409,326.435,171.559,326.435,171.559z"/>
		<path style="fill:#E7B35D;" d="M358.265,122.394c0,0-7.63,5.359-10.958,4.884s-5.002-6.392-5.002-6.392
			c-1.842-0.579-11.821,2.737-13.613,4.698c-3.755,4.108-6.006,47.706-1.189,49.287c0.729,0.239,39.412,1.764,41.081-0.341
			c1.669-2.106,3.074-45.061,3.074-45.061S365.067,122.394,358.265,122.394z"/>
		
			<rect x="334.247" y="58.247" transform="matrix(0.9969 -0.0787 0.0787 0.9969 -8.3088 26.7651)" style="fill:#27223A;" width="2" height="120.995"/>
		<path style="fill:#27223A;" d="M345.397,103.604c0,0-0.987,4.579,1.676,6.443c2.663,1.864,6.807,2.299,7.81-0.311
			c1.003-2.609,1.766-6.611,2.254-6.132c0.488,0.479,1.076,0.906,0.894,1.149c-0.182,0.243-0.592,6.785-3.45,8.338
			c-2.858,1.553-6.431,0.87-8.651-0.373s-1.169-8.001-1.539-8.629C344.02,103.462,345.397,103.604,345.397,103.604z"/>
		
			<rect x="299.487" y="47.464" transform="matrix(0.9976 -0.0697 0.0697 0.9976 -3.96 23.3295)" style="fill:#6F6CAC;" width="65.442" height="41.855"/>
		<path style="fill:#9B504F;" d="M340.01,139.556c0,0-5.74-0.419-7.268,1.876c-1.125,1.69-1.709,7.696,3.597,6.621
			c1.682-0.341,1.866-1.665,5.773,0.974c4.712,3.183,15.949,13.104,18.487,14.509c5.351,2.962,12.2-9.896,8.56-12.04
			C365.519,149.353,340.01,139.556,340.01,139.556z"/>
		<path style="fill:#9B504F;" d="M329.275,133.83c0,0,6.946-5.679,8.753-3.596c1.807,2.083,5.388,3.61,1.012,6.796
			c-4.376,3.186-2.419-1.078-6.583,3.627c-4.164,4.705-10.173,16.09-16.84,15.187c-6.309-0.854-6.695-8.747-2.872-11.636
			C316.116,141.662,329.275,133.83,329.275,133.83z"/>
		<path style="fill:#9B504F;" d="M363.532,138.289c0,0,9.657,6.344,9.585,7.833c-0.072,1.489-6.13,30.167-18.113,8.637
			C355.004,154.76,362.511,137.837,363.532,138.289z"/>
		<path style="fill:#E7B35D;" d="M355.004,142.456c0,0,15.819,8.858,17.446,7.524c1.627-1.334,3.499-12.717,3.333-15.414
			c-0.333-5.435-15.375-13.552-15.521-11.498C360.117,125.123,355.004,142.456,355.004,142.456z"/>
		<g>
			<path style="fill:#6F6CAC;" d="M305.179,74.577c0,0,5.236-6.069,12.285-3.701s10.516,11.282,19.083,5.639
				c9.489-6.25,16.998-6.05,21.305-1.86"/>
			<path style="fill:#FFFFFF;" d="M331.285,79.855c-3.401,0-6.076-2.086-8.537-4.005c-1.791-1.396-3.642-2.84-5.761-3.552
				c-5.981-2.01-10.486,3.046-10.675,3.262l-2.269-1.963c0.241-0.279,5.984-6.8,13.898-4.143c2.605,0.875,4.662,2.479,6.651,4.03
				c3.676,2.867,6.331,4.938,11.129,1.778c13.407-8.829,20.674-4.117,23.176-1.683l-2.092,2.15
				c-4.192-4.08-11.276-3.336-19.434,2.038C335.089,79.27,333.085,79.855,331.285,79.855z"/>
		</g>
		<g>
			<path style="fill:#6F6CAC;" d="M305.871,59.836c0,0,5.236-6.069,12.285-3.701c7.049,2.368,10.516,11.282,19.083,5.639
				c9.489-6.25,16.998-6.05,21.305-1.86"/>
			<path style="fill:#FFFFFF;" d="M331.978,65.114c-3.402,0-6.077-2.086-8.538-4.006c-1.79-1.396-3.642-2.84-5.76-3.552
				c-5.982-2.01-10.486,3.046-10.675,3.262l-2.269-1.963c0.241-0.279,5.987-6.801,13.899-4.143c2.604,0.875,4.661,2.479,6.65,4.03
				c3.677,2.866,6.333,4.938,11.129,1.778c13.402-8.829,20.673-4.117,23.176-1.682l-2.092,2.15
				c-4.193-4.08-11.275-3.336-19.434,2.037C335.782,64.53,333.778,65.114,331.978,65.114z"/>
		</g>
	</g>
	<g>
		<path style="fill:#FFF9C6;" d="M263.16,108.777c0,0-0.364-7.847,8.347-10.995c5.499-1.988,14.455,2.745,15.789,8.626
			c1.333,5.881-0.353,10.99,3.49,14.269c3.843,3.279,4.51,4.969,4.176,8.791c-0.333,3.822,3.484,2.018,0.075,8.42
			c-3.409,6.402-27.924,8.889-35.833,2.479c-7.909-6.41-6.242-8.151-3.242-12.614c3-4.463-3.458-9.168,1.605-11.816
			C262.629,113.289,261.629,111.884,263.16,108.777z"/>
		<path style="fill:#D67D70;" d="M286.781,131.945c0,0,15.713,18.48,15.823,19.806s-3.473,5.982-6.14,5.538
			c-2.667-0.444-2.334-3.326-11.001-11.167C283.273,144.142,286.781,131.945,286.781,131.945z"/>
		<path style="fill:#D67D70;" d="M240.52,150.117c0,0,14.037-15.038,17.44-17.589c3.403-2.551,0.936,10.664,1.34,12.104
			c0.404,1.44-8.72,6.058-12.338,9.331C243.525,157.073,240.52,150.117,240.52,150.117z"/>
		<path style="fill:#D67D70;" d="M253.299,170.783c0,0-3.77,81.028-4.636,82.537c-0.866,1.509,4.427,2.333,5.291,1.063
			c0.863-1.27,6.799-15.444,8.104-22.987s1.532-9.37,1.061-18.501s13.391-25.553,12.376-34.637
			C275.495,178.258,253.513,166.813,253.299,170.783z"/>
		<path style="fill:#D67D70;" d="M267.628,173.066c0,0,12.368,78.621,11.831,80.254c-0.537,1.634,4.698,1.231,5.281-0.167
			s3.819-15.099,3.534-22.732c-0.285-7.633-0.112-7.5-2.47-16.38s6.447-31.871,3.565-40.609
			C289.37,173.432,267.013,169.131,267.628,173.066z"/>
		<path style="fill:#CC5561;" d="M251.456,208.564c0,0,11.588,1.117,12.334-0.262s3.825-7.762,3.825-7.762
			s-16.298-1.541-16.298-1.54S251.456,208.564,251.456,208.564z"/>
		<path style="fill:#CC5561;" d="M273.197,208.991c0,0,12.191-0.169,12.232,0s1.515-8.866,1.337-9.992s-16.393-0.303-16.246,0.665
			S273.197,208.991,273.197,208.991z"/>
		<path style="fill:#27223A;" d="M254.392,253.254c0,0,1.232,4.251-0.27,5.002c-1.502,0.751-10.91,1.03-12.949,0.708
			c-2.039-0.322,7.506-4.356,7.491-5.644S254.392,253.254,254.392,253.254z"/>
		<path style="fill:#D67D70;" d="M248.964,251.089c0,0-0.3,2.231-3.538,4.589c-1.753,1.277,1.39,0.953,3.759,0.766
			c2.2-0.174,3.153-0.531,3.153-0.531c1.833-0.579,2.306-2.961,2.427-3.451C254.942,251.75,248.964,251.089,248.964,251.089z"/>
		<path style="fill:#27223A;" d="M285.106,253.128c0,0,0.503,4.403-0.999,5.154c-1.502,0.751-9.53,1.003-11.569,0.682
			c-2.039-0.322,7.506-4.356,7.491-5.644C280.014,252.033,285.106,253.128,285.106,253.128z"/>
		<path style="fill:#D67D70;" d="M280.329,251.089c0,0-0.3,2.231-3.538,4.589c-1.753,1.277,1.39,0.953,3.759,0.766
			c2.2-0.174,3.153-0.531,3.153-0.531c1.833-0.579,1.297-3.524,1.419-4.015C285.299,251.186,280.329,251.089,280.329,251.089z"/>
		<path style="fill:#D67D70;" d="M279.503,104.43c0,0-8.526-3.205-10.757,1.967c-2.231,5.172,0.263,16.615,6.432,15.464
			C281.594,120.664,284.062,106.133,279.503,104.43z"/>
		<path style="fill:#D67D70;" d="M281.085,113.392c0,0,0.734-1.794,2.039-1.468s0.734,3.915-1.02,4.323
			C280.351,116.654,280.559,114.243,281.085,113.392z"/>
		<path style="fill:#D67D70;" d="M269.131,113.392c0,0-0.734-1.794-2.039-1.468s-0.734,3.915,1.02,4.323
			C269.865,116.654,269.657,114.243,269.131,113.392z"/>
		<path style="fill:#D67D70;" d="M269.504,116.292c0,0,1.288,9.206,0,10.833c-1.288,1.627-10.495,3.761-11.797,6.69
			c-1.302,2.929,6.905,17.523,6.905,17.523h11.676c0,0,14.271-14.269,12.318-17.523c-1.953-3.255-8.673-4.737-9.649-6.039
			c-0.976-1.302,0-11.484,0-11.484H269.504z"/>
		<path style="fill:#FFFFFF;" d="M276.092,115.439c0,0-2.781-0.859-3.583-0.717c-0.801,0.141-0.283,1.839,1.131,2.357
			C275.055,117.598,276.897,115.671,276.092,115.439z"/>
		<path style="fill:#27223A;" d="M278.184,111.481c0,0-0.454-0.681-1.022-0.151c-0.568,0.53-0.681,2.342,0.378,2.174
			C278.6,113.335,278.633,111.818,278.184,111.481z"/>
		<path style="fill:#27223A;" d="M272.094,111.044c0,0-0.454-0.681-1.022-0.151c-0.568,0.53-0.681,2.342,0.378,2.174
			C272.51,112.897,272.543,111.38,272.094,111.044z"/>
		<path style="fill:#CC5561;" d="M277.15,120.619c0,0-4.526,1.886-7.359-1.875c0,0,0.099,1.733,0.285,4.892
			C270.127,124.502,276.288,124.202,277.15,120.619z"/>
		<path style="fill:#FFF9C6;" d="M274.21,101.118c0,0,1.975,10.942,7.092,10.765C286.42,111.707,279.647,99.265,274.21,101.118z"/>
		<path style="fill:#FFF9C6;" d="M267.48,111.886c0,0,8.643-4.832,7.616-9.027C274.068,98.665,265.225,101.347,267.48,111.886z"/>
		<path style="fill:#CA4941;" d="M280.16,128.598c0,0-3.856,7.477-9.734,6.568c-4.946-0.764-2.27-6.632-2.1-7.211
			c0.502-1.704-9.697,1.819-10.366,4.573c-0.498,2.047-3.125,11.491-1.831,16.784c1.295,5.294-5.112,24.804-2.738,24.804
			c2.374,0,34.11,1.066,35.175-0.229c1.064-1.295-3.326-19.489-2.158-22.971s4.139-14.01,1.348-18.151
			C284.965,128.625,280.16,128.598,280.16,128.598z"/>
		<path style="fill:#27223A;" d="M287.03,160.534c0,0-33.802-1.394-33.895,0c-0.093,1.394-6.213,35.052-5.352,38.937
			c0.861,3.884,36.813,4.597,43.221,2.946C297.413,200.766,287.47,163.67,287.03,160.534z"/>
		<path style="fill:#CA4941;" d="M269.504,124.456c0,0,9.208-1.325,9.875-0.412c0.667,0.912,0.378,3.927,1.043,5.424
			c0.666,1.497,1.896,0.557,1.852,2.238c-0.044,1.681-5.462,5.167-8.804,5.667c-3.341,0.5-4.425,1.667-6.008-2.333
			c-1.583-4-1.417-6.656,0-7.495C268.879,126.706,267.38,125.039,269.504,124.456z"/>
		<rect x="237.52" y="146.313" style="fill:#6F6CAC;" width="66" height="25.032"/>
		
			<text transform="matrix(1 0 0 1 240.5199 162.9737)" style="fill:#FFFFFF; font-family:'Gilroy-ExtraBold'; font-size:12.9718px;">GO VOTE</text>
		<path style="fill:#D67D70;" d="M303.325,147.457c0,0-3.439,0.595-4.623,1.871s3.53-0.231,3.803-0.139
			c0.273,0.091-3.497,0-3.753,0.729c-0.256,0.729,3.753,2.004,3.753,2.004s-3.944-2.156-3.46-1.518
			c0.485,0.638,2.543,4.252,4.14,4.069c1.597-0.182,3.328-4.829,1.962-7.016c-1.367-2.187-2.762-4.115-2.975-2.923
			C301.959,145.726,303.325,147.457,303.325,147.457z"/>
		<path style="fill:#D67D70;" d="M238.403,146.872c0,0,3.439,0.595,4.623,1.871s-3.53-0.231-3.803-0.139
			c-0.273,0.091,3.497,0,3.753,0.729c0.256,0.729-3.753,2.004-3.753,2.004s3.944-2.156,3.46-1.518
			c-0.485,0.638,0.232,2.582-4.14,4.069c-1.522,0.518-4.058-2.631-1.962-7.016c1.112-2.326,3.779-2.434,3.779-1.906
			C240.359,146.177,238.403,146.872,238.403,146.872z"/>
	</g>
	<g>
		<path style="fill:#6E1F34;" d="M212.033,92.752c0,0,0.938-2.035,4.206,0.247c3.268,2.282,2.158,10.137,3.33,12.284
			c1.172,2.146-2.097,4.317-1.912,5.668c0.185,1.35-0.987,1.844-3.762,2.337c-2.775,0.493-4.389-1.295-6.85-0.987
			c-2.462,0.308-2.307-1.776-5.529-1.35c-3.223,0.425-3.408-2.248-3.346-4.611c0.062-2.363,2.312-5.194,1.783-6.715
			c-1.105-3.172,2.587-7.429,5.129-8.105C212.033,89.669,212.033,92.752,212.033,92.752z"/>
		<path style="fill:#DD987B;" d="M228.268,118.174c0,0,13.416-8.328,14.976-10.417c1.56-2.089-10.831-23.548-11.266-24.328
			s-1.215-1.04-2.515-4.16c-1.3-3.12,5.076-5.201,6.959-4.42s3.963,5.118,3.442,5.679s14.301,21.34,14.301,28.502
			c0,7.163-15.602,19.695-17.942,18.889C233.883,127.113,228.268,118.174,228.268,118.174z"/>
		<path style="fill:#27223A;" d="M194.403,250.399c0,0,1.151,6.762-0.863,7.769c-2.014,1.007-13.092,1.151-15.825,0.719
			s8.528-5.611,8.508-7.337S194.403,250.399,194.403,250.399z"/>
		<path style="fill:#27223A;" d="M226.196,250.399c0,0,1.151,6.762-0.863,7.769c-2.014,1.007-13.092,1.151-15.825,0.719
			s8.528-5.611,8.508-7.337S226.196,250.399,226.196,250.399z"/>
		<path style="fill:#E7B35D;" d="M208.914,184.382l-16.158-1.28c0,0-1.483-8.996,2.089-9.191c3.572-0.195,15.145,0.806,14.957,3.89
			C209.613,180.886,208.914,184.382,208.914,184.382z"/>
		<path style="fill:#E7B35D;" d="M184.198,162.354c0,0-7.389,34.884-8.684,40.063c-1.295,5.179,6.13,47.992,6.7,48.855
			c0.571,0.863,13.794,2.148,14.778-0.873c0.984-3.021-2.403-40.329-1.851-42.844c0.552-2.514,6.376-33.98,6.376-33.98
			s1.814,30.519,2.706,33.579c1.717,5.893,7.074,44.198,10.064,44.8c2.99,0.602,10.758,1.865,14.211-1.002
			c3.453-2.867-5.179-44.576-5.179-52.777c0-8.2,3.021-33.233,2.59-34.527C225.477,162.354,184.198,162.354,184.198,162.354z"/>
		<path style="fill:#DD987B;" d="M192.555,122.209c0,0-22.606,0.069-25.195-0.794c0,0,1.579-19.051,1.866-19.915
			c0.288-0.863,3.453-0.874,3.453-1.876s0.863-8.77-2.014-8.483s-7.769-1.356-8.056,1.768c-0.288,3.124,0.288,5.127,0,6.715
			c-0.288,1.588-6.737,22.894-5.874,29.29c0.863,6.397,30.362,7.909,32.664,7.622C191.701,136.248,192.555,122.209,192.555,122.209z
			"/>
		<path style="fill:#DD987B;" d="M213.079,96.636c0,0-8.526-3.205-10.757,1.967c-2.231,5.172,0.263,16.615,6.432,15.464
			C215.169,112.87,217.638,98.339,213.079,96.636z"/>
		<path style="fill:#6E1F34;" d="M214.844,95.654c0,0,0.07-5.889-7.059-4.444s-5.111,5.947-6.268,6.839
			c-1.157,0.892-1.735,5.587,0,7.611c1.735,2.023,0.293-8.453,3.115-8.189c1.268,0.119,2.601,3.564,7.803,1.249
			c3.256-1.449,0.771,7.809,2.408,7.615C216.482,106.142,218.312,99.328,214.844,95.654z"/>
		<path style="fill:#DD987B;" d="M214.661,105.597c0,0,0.734-1.794,2.039-1.468c1.305,0.326,0.734,3.915-1.02,4.323
			S214.135,106.449,214.661,105.597z"/>
		<path style="fill:#DD987B;" d="M202.707,105.597c0,0-0.734-1.794-2.039-1.468c-1.305,0.326-0.734,3.915,1.02,4.323
			C203.441,108.86,203.233,106.449,202.707,105.597z"/>
		<path style="fill:#DD987B;" d="M203.08,108.498c0,0,1.288,9.206,0,10.833s-17.293,3.529-18.595,6.458
			c-1.302,2.929-2.548,38.784-2.548,38.784h41.423c0,0,4.145-32.223,2.192-35.478c-1.953-3.255-12.043-7.812-13.019-9.114
			c-0.976-1.302,0-11.484,0-11.484H203.08z"/>
		<path style="fill:#27223A;" d="M214.287,121.248c0,0-2.254,7.292-9.315,4.939c-3.315-1.104-4.55-5.813-4.55-5.813
			c-1.872,0.448-14.543,2.778-16.727,5.813c-2.184,3.035-1.833,38.604-2.336,49.505c-0.082,1.768,28.443,2.109,43.423,2.566
			c1.069,0.033,3.719-48.566,1.717-51.319C224.496,124.185,214.287,121.248,214.287,121.248z"/>
		<path style="fill:#FFFFFF;" d="M209.668,107.645c0,0-2.781-0.859-3.583-0.717s-0.283,1.839,1.131,2.357
			C208.631,109.803,210.473,107.877,209.668,107.645z"/>
		<path style="fill:#27223A;" d="M211.76,103.687c0,0-0.454-0.681-1.022-0.151s-0.681,2.342,0.378,2.174
			S212.209,104.023,211.76,103.687z"/>
		<path style="fill:#27223A;" d="M205.67,103.249c0,0-0.454-0.681-1.022-0.151c-0.568,0.53-0.681,2.342,0.378,2.174
			S206.118,103.585,205.67,103.249z"/>
		<path style="fill:#D3726C;" d="M210.726,112.825c0,0-4.526,1.886-7.359-1.875c0,0,0.099,1.733,0.285,4.892
			C203.703,116.707,209.864,116.408,210.726,112.825z"/>
		<path style="fill:#27223A;" d="M200.422,120.374c0,0-22.964-0.785-24.908,1.174c-1.944,1.959-2.26,18.795-2.26,18.795
			s14.129,1.462,15.855,0.023C190.836,138.928,200.422,120.374,200.422,120.374z"/>
		<rect x="145.926" y="66.64" style="fill:#6F6CAC;" width="46.525" height="32.984"/>
		<path style="fill:#27223A;" d="M214.287,121.248c0,0,15.299-7.339,18.633-6.542s12.458,16.509,10.306,18.49
			s-14.148,8.974-16.727,10.974S216.041,122.513,214.287,121.248z"/>
		<path style="fill:#DD987B;" d="M166.61,99.624c0,0,0.782-1.647,2.578-2.303c1.797-0.657,3.836-5.407,4.066-3.907
			s1.357,5.131-0.575,6.21C170.746,100.703,165.883,100.656,166.61,99.624z"/>
		<g>
			<path style="fill:#6F6CAC;" d="M152.115,79.468c0,0,3.118-5.307,9.6-4.245c6.238,1.022,6.736,4.564,11.672,4.374
				c8.1-0.311,9.941-5.906,16.616-0.313"/>
			<path style="fill:#FFFFFF;" d="M173.015,81.105c-2.75,0-4.361-1.05-5.923-2.067c-1.426-0.929-2.9-1.889-5.619-2.334
				c-5.402-0.885-8.038,3.48-8.064,3.524l-2.587-1.52c0.149-0.252,3.733-6.179,11.136-4.965c3.342,0.548,5.243,1.786,6.771,2.781
				c1.474,0.961,2.537,1.656,4.601,1.575c2.757-0.106,4.754-0.894,6.517-1.588c3.21-1.266,6.243-2.462,11.12,1.625l-1.927,2.299
				c-3.509-2.94-5.041-2.336-8.092-1.133c-1.887,0.744-4.235,1.67-7.502,1.795C173.298,81.102,173.155,81.105,173.015,81.105z"/>
		</g>
		<g>
			<path style="fill:#6F6CAC;" d="M150.244,88.518c0,0,3.118-5.307,9.6-4.245c6.238,1.022,6.736,4.564,11.672,4.374
				c8.1-0.311,9.941-5.906,16.616-0.313"/>
			<path style="fill:#FFFFFF;" d="M171.144,90.155c-2.749,0-4.361-1.05-5.923-2.067c-1.426-0.929-2.9-1.889-5.619-2.334
				c-5.403-0.886-8.039,3.48-8.064,3.524l-2.587-1.52c0.149-0.253,3.732-6.176,11.136-4.965c3.342,0.548,5.243,1.786,6.771,2.781
				c1.475,0.96,2.531,1.66,4.601,1.575c2.757-0.106,4.754-0.894,6.517-1.588c3.21-1.266,6.243-2.463,11.12,1.625l-1.927,2.299
				c-3.508-2.94-5.04-2.336-8.092-1.133c-1.887,0.744-4.235,1.67-7.502,1.795C171.428,90.152,171.284,90.155,171.144,90.155z"/>
		</g>
	</g>
	<g>
		<path style="fill:#D3726C;" d="M569.427,204.944c0,0,0.691,13.466,1.627,15.459c0.797,1.697,18.839-3.354,21.743-0.17
			c2.903,3.185,4.505,18.079,4.505,18.079h-55.704c0,0-0.391-10.72,1.122-13.45c1.513-2.73,18.182-0.986,18.114-4.459
			s0.933-13.308,0.933-13.308L569.427,204.944z"/>
		<path style="fill:#27223A;" d="M559.637,193.221c0,0,10.295-3.224,13.948,0.651c3.654,3.875,1.854,11.877-0.389,16.442
			c-2.243,4.565-11.223,5.325-15.02-0.01C554.378,204.97,554.576,194.285,559.637,193.221z"/>
		<path style="fill:#E7B35D;" d="M559.902,220.234c0,0,8.908-1.824,12.275-1.122c3.367,0.701,18.937-2.104,21.602,1.122
			c2.665,3.226,3.523,31.464,3.523,31.464l-55.76-1.471c0,0-1.487-25.083,0.897-26.626S559.902,220.234,559.902,220.234z"/>
		<path style="fill:#D3726C;" d="M632.556,204.944c0,0-0.828,13.466,0.108,15.459c0.797,1.697,18.839-3.354,21.743-0.17
			c2.903,3.185,4.505,18.079,4.505,18.079h-55.704c0,0-0.391-10.72,1.122-13.45c1.513-2.73,18.182-0.986,18.114-4.459
			s0.136-13.018,0.136-13.018L632.556,204.944z"/>
		<path style="fill:#CA4941;" d="M621.513,221.196c0,0,8.908-2.928,12.275-1.802c3.367,1.126,18.937-3.379,21.602,1.802
			s3.523,29.03,3.523,29.03h-56.967c0,0-0.281-21.147,2.104-23.624C606.434,224.124,621.513,221.196,621.513,221.196z"/>
		<path style="fill:#D3726C;" d="M510.831,204.944c0,0-0.828,13.466,0.108,15.459c0.797,1.697,18.839-3.354,21.743-0.17
			c2.903,3.185,4.505,18.079,4.505,18.079h-55.704c0,0-0.391-10.72,1.122-13.45c1.513-2.73,18.182-0.986,18.114-4.459
			s0.136-13.018,0.136-13.018L510.831,204.944z"/>
		<path style="fill:#27223A;" d="M500.401,220.234c0,0,8.908-1.824,12.275-1.122c3.367,0.701,18.937-2.104,21.602,1.122
			c2.665,3.226,3.523,31.464,3.523,31.464h-56.977c0,0-0.27-26.554,2.114-28.097C485.322,222.057,500.401,220.234,500.401,220.234z"
			/>
		<path style="fill:#9B504F;" d="M600.715,224.145c0,0-0.828,13.466,0.108,15.459c0.797,1.697,18.839-3.354,21.743-0.17
			c2.903,3.185,4.505,18.079,4.505,18.079h-55.704c0,0-0.391-10.72,1.122-13.45c1.513-2.73,18.182-0.986,18.114-4.459
			s0.136-13.018,0.136-13.018L600.715,224.145z"/>
		<path style="fill:#27223A;" d="M589.671,239.434c0,0,8.908-1.824,12.275-1.122c3.367,0.701,18.937-2.104,21.602,1.122
			c2.665,3.226,3.523,18.079,3.523,18.079h-56.967c0,0-0.281-13.169,2.104-14.712C574.592,241.258,589.671,239.434,589.671,239.434z
			"/>
		<path style="fill:#D3726C;" d="M538.866,224.145c0,0-0.754,13.466,0.098,15.459c0.726,1.697,17.148-3.354,19.791-0.17
			c2.643,3.185,4.101,18.079,4.101,18.079h-50.703c0,0-0.356-10.72,1.021-13.45c1.377-2.73,16.55-0.986,16.488-4.459
			s0.124-13.018,0.124-13.018L538.866,224.145z"/>
		<path style="fill:#CA4941;" d="M526.461,239.434c0,0,8.908-1.824,12.275-1.122c3.367,0.701,18.937-2.104,21.602,1.122
			c2.665,3.226,3.523,18.079,3.523,18.079h-56.967c0,0-0.281-13.169,2.104-14.712C511.382,241.258,526.461,239.434,526.461,239.434z
			"/>
		<path style="fill:#6E1F34;" d="M528.86,208.805c0,0-4.642,3.418-6.883,10.054c-2.241,6.636-1.761,10.255-1.441,14.679
			c0.32,4.424-5.443,12.467-2.401,18.5c3.042,6.033,6.243,3.418,10.725,7.44s6.563,7.239,11.366,2.614
			c4.802-4.625,5.923-6.033,8.004-9.652c2.081-3.62,0-13.875-2.561-19.304c-2.561-5.429-1.921-11.864-3.202-16.288
			S532.702,206.392,528.86,208.805z"/>
		<path style="fill:#FFF9C6;" d="M500.37,193.221c0,0,10.295-3.224,13.948,0.651c3.654,3.875,1.854,11.877-0.389,16.442
			c-2.243,4.565-11.223,5.325-15.02-0.01C495.111,204.97,495.31,194.285,500.37,193.221z"/>
		<path style="fill:#D3726C;" d="M485.61,218.645c0,0-21.852-11.948-25.5-15.698c-3.648-3.75,10.028-22.5,10.028-25.25
			s-5.55-7.75-7.164-6c-1.614,1.75-4.114,7-3.364,7.75s-17.75,20.884-8,31.942s24.689,22.041,26.75,20.812
			C480.421,230.971,485.61,218.645,485.61,218.645z"/>
		<path style="fill:#27223A;" d="M464.36,229.03c2.697-5,11-16.333,14.25-16.083s23.604,5.573,21.177,7.286
			c-2.427,1.714-15.014,22.681-17.613,22.13C477.695,241.415,464.36,229.03,464.36,229.03z"/>
		<path style="fill:#9B504F;" d="M655.576,220.045c0,0,21.852-11.948,25.5-15.698s-10.028-22.5-10.028-25.25s5.55-7.75,7.164-6
			c1.614,1.75,4.114,7,3.364,7.75s17.75,20.884,8,31.942c-9.75,11.058-24.689,22.041-26.75,20.812S655.576,220.045,655.576,220.045z
			"/>
		<path style="fill:#CA4941;" d="M670.772,232.201c-2.697-5-4.945-18.104-8.195-17.854s-23.604,5.573-21.177,7.286
			s11.577,21.012,14.177,20.461C660.055,241.146,670.772,232.201,670.772,232.201z"/>
		<circle style="fill:#27223A;" cx="565.615" cy="188.017" r="6.378"/>
		<path style="fill:#FFF9C6;" d="M623.912,189.492c0,0-4.642,2.721-6.883,8.004c-2.241,5.283-1.761,8.164-1.441,11.686
			c0.32,3.522-5.443,9.925-2.401,14.727c3.041,4.802,6.243,2.721,10.725,5.923c4.482,3.202,6.563,5.763,11.365,2.081
			c4.802-3.682,5.923-4.802,8.004-7.684c2.081-2.881,0-11.045-2.561-15.367c-2.561-4.322-1.921-9.445-3.202-12.966
			C636.238,192.374,627.754,187.571,623.912,189.492z"/>
		<path style="fill:#27223A;" d="M600.678,197.942c0,0,1.468-1.069,4.046,0.748s1.767,2.566,4.418,3.528
			c2.651,0.962,3.506,2.031,3.506,4.384c0,2.352,0.535,5.132,1.925,6.95c1.39,1.818-0.321,3.26-1.176,5.319
			c-0.855,2.059,2.459,2.807-0.428,6.015c-2.887,3.208-4.374,4.094-6.036,5.896s-5.038,0.121-7.814,0.733s-5.716,1.114-8.068,0.129
			c-2.352-0.985-3.956,0.17-5.881-1.637c-1.924-1.807-1.711-4.902-3.314-5.974c-1.604-1.072-2.78-4.927-2.031-6.849
			c0.748-1.921-0.675-4.381-0.231-6.947c0.445-2.566,3.743-5.453,4.874-6.415c1.131-0.962,0.56-3.101,2.823-4.17
			s4.061-0.642,5.995-0.855S595.872,195.697,600.678,197.942z"/>
	</g>
	<g>
		<path style="fill:#6F6CAC;" d="M546.441,29.875c0,0-20.922-6.919-33.466-0.552c-15.9,8.071-6.239,28.774-0.491,29.757
			c5.748,0.983-2.283,9.861,1.658,9.921c3.941,0.061,4.851-4.865,10.437-4.803s12.357,8.944,29.798,0.11
			S566.054,34.482,546.441,29.875z"/>
		<g>
			<path style="fill:#6F6CAC;" d="M517.797,36.861c0,0,1.256,5.267,8.893,5.003s10.797-3.423,16.063,1.317
				c5.267,4.74,8.163-1.225,12.903,2.943"/>
			<path style="fill:#FFFFFF;" d="M554.667,47.25c-1.744-1.533-2.958-1.298-4.796-0.945c-2.16,0.417-4.851,0.934-8.121-2.009
				c-3.082-2.774-5.102-2.398-8.774-1.716c-1.759,0.327-3.752,0.698-6.233,0.783c-7.022,0.251-9.869-3.919-10.403-6.154l2.918-0.696
				l-1.459,0.348l1.455-0.366c0.044,0.167,1.137,4.085,7.386,3.87c2.257-0.078,4.134-0.427,5.789-0.734
				c3.834-0.714,7.146-1.329,11.33,2.436c2.16,1.945,3.58,1.671,5.546,1.292c2.001-0.386,4.495-0.866,7.344,1.638L554.667,47.25z"/>
		</g>
		<g>
			<path style="fill:#6F6CAC;" d="M515.608,46.124c0,0,1.256,5.267,8.893,5.003s10.797-3.423,16.063,1.317
				c5.267,4.74,8.163-1.225,12.903,2.943"/>
			<path style="fill:#FFFFFF;" d="M552.477,56.513c-1.744-1.532-2.958-1.299-4.796-0.945c-2.16,0.417-4.85,0.935-8.121-2.009
				c-3.083-2.774-5.105-2.399-8.773-1.716c-1.76,0.327-3.753,0.698-6.234,0.783c-7.039,0.246-9.871-3.92-10.403-6.155l2.918-0.696
				l-1.459,0.348l1.455-0.365c0.044,0.167,1.137,4.093,7.386,3.87c2.257-0.078,4.134-0.427,5.789-0.735
				c3.834-0.712,7.146-1.329,11.33,2.436c2.16,1.945,3.579,1.67,5.546,1.292c2.001-0.385,4.495-0.866,7.344,1.638L552.477,56.513z"
				/>
		</g>
	</g>
	<g>
		<path style="fill:#6F6CAC;" d="M596.043,29.582c0,0,21.37-8.464,30.576,0.504s4.83,26.462-0.448,27.187
			c-5.278,0.725,1.788,9.073-1.813,9.01c-3.601-0.063-4.283-4.589-9.385-4.7s-12.586,7.581-28.245-1.011
			S577.995,33.198,596.043,29.582z"/>
		<g>
			<path style="fill:#6F6CAC;" d="M588.697,47.816c0,0,3.804-5.161,12.242-4.108c8.438,1.053,13.305-7.373,21.141-5.793"/>
			<path style="fill:#FFFFFF;" d="M589.904,48.706l-2.414-1.78c0.177-0.24,4.435-5.856,13.635-4.706
				c3.696,0.462,6.667-1.16,9.807-2.876c3.422-1.871,6.958-3.804,11.445-2.899l-0.594,2.94c-3.411-0.685-6.193,0.832-9.412,2.591
				c-3.259,1.783-6.958,3.806-11.617,3.221C593.267,44.267,589.937,48.661,589.904,48.706z"/>
		</g>
		<g>
			<path style="fill:#6F6CAC;" d="M591.412,55.805c0,0,3.804-5.161,12.242-4.108s13.305-7.373,21.141-5.793"/>
			<path style="fill:#FFFFFF;" d="M592.619,56.695l-2.414-1.78c0.177-0.239,4.432-5.857,13.634-4.706
				c3.707,0.46,6.668-1.16,9.809-2.876c3.42-1.869,6.954-3.804,11.444-2.899l-0.594,2.94c-3.41-0.685-6.193,0.832-9.412,2.591
				c-3.26,1.783-6.961,3.803-11.618,3.221C595.982,52.254,592.652,56.65,592.619,56.695z"/>
		</g>
	</g>
</g>
</svg>
