<?xml version="1.0" encoding="utf-8"?>
<!-- Generator: Adobe Illustrator 27.5.0, SVG Export Plug-In . SVG Version: 6.00 Build 0)  -->
<svg version="1.1" id="Layer_1" xmlns="http://www.w3.org/2000/svg" xmlns:xlink="http://www.w3.org/1999/xlink" x="0px" y="0px"
	 viewBox="0 0 288 288" style="enable-background:new 0 0 288 288;" xml:space="preserve">
<g>
	<rect x="0" y="0" style="fill:#FFFFFF;" width="288" height="288"/>
	<path style="fill:#8A8A8A;" d="M259.936,46.183V242.18H28.064V46.183H259.936 M260.929,45.252H27.071V243.11h233.858V45.252
		L260.929,45.252z"/>
	<g>
		<g>
			<g>
				<g>
					<g>
						
							<radialGradient id="SVGID_1_" cx="76.7469" cy="122.4155" r="371.459" gradientTransform="matrix(1.8268 0.1152 -0.1841 1.1425 61.3728 286.4877)" gradientUnits="userSpaceOnUse">
							<stop  offset="0" style="stop-color:#D5E305"/>
							<stop  offset="1" style="stop-color:#51B800"/>
						</radialGradient>
						<path style="fill:url(#SVGID_1_);" d="M288,139.118c-3.545-0.006-7.017,0.079-10.377,0.241
							c-19.951,0.96-39.593,0.466-58.306,1.875c-18.621,1.409-36.453,9.027-48.891,21.625
							c-14.835,15.043-23.888,33.095-38.301,47.306c-6.963,6.856-17.005,11.077-27.133,11.974
							c18.946,12.494,40.507,21.332,56.477,16.132c20.039-6.555,32.303-24.522,50.906-38.868
							c17.242-13.282,41.241-21.778,67.439-17.451c2.757,0.457,5.485,0.956,8.187,1.488V139.118z"/>
						
							<radialGradient id="SVGID_00000026137358060794112480000014460878384193358744_" cx="76.7448" cy="122.4146" r="371.4504" gradientTransform="matrix(1.8268 0.1152 -0.1841 1.1425 61.3728 286.4877)" gradientUnits="userSpaceOnUse">
							<stop  offset="0" style="stop-color:#D5E305"/>
							<stop  offset="1" style="stop-color:#51B800"/>
						</radialGradient>
						<path style="fill:url(#SVGID_00000026137358060794112480000014460878384193358744_);" d="M32.254,183.348
							C21.119,175.16,9.871,168.273,0,165.594v46.384c10.06-12.762,23.218-24.03,35.946-25.871
							C34.723,185.181,33.494,184.259,32.254,183.348z"/>
						
							<radialGradient id="SVGID_00000135661548498795808520000005777102127145801384_" cx="76.7448" cy="122.4071" r="371.4396" gradientTransform="matrix(1.8268 0.1152 -0.1841 1.1425 61.3728 286.4877)" gradientUnits="userSpaceOnUse">
							<stop  offset="0" style="stop-color:#D5E305"/>
							<stop  offset="1" style="stop-color:#51B800"/>
						</radialGradient>
						<path style="fill:url(#SVGID_00000135661548498795808520000005777102127145801384_);" d="M42.34,186.01
							c-2.107-0.265-4.244-0.214-6.394,0.097c16.424,12.429,31.578,25.871,50.356,33.504c5.749,2.331,12.236,3.099,18.689,2.528
							c-1.173-0.773-2.336-1.559-3.487-2.358C79.829,204.726,62.349,188.558,42.34,186.01z"/>
						
							<radialGradient id="SVGID_00000137838326281247824320000006381196829541911180_" cx="138.4098" cy="-303.2909" r="395.1373" gradientTransform="matrix(1.8268 0.1152 -0.1841 1.1425 61.3728 286.4877)" gradientUnits="userSpaceOnUse">
							<stop  offset="0" style="stop-color:#D5E305"/>
							<stop  offset="1" style="stop-color:#51B800"/>
						</radialGradient>
						<path style="fill:url(#SVGID_00000137838326281247824320000006381196829541911180_);" d="M18.462,173.206
							C11.8,168.913,5.406,166.012,0,164.617v9.274c7.22-0.915,17.495,0.22,28.111,6.056
							C24.847,177.534,21.648,175.26,18.462,173.206z"/>
						
							<radialGradient id="SVGID_00000092445276869750775970000003822794012982526084_" cx="138.4086" cy="-303.2921" r="395.1379" gradientTransform="matrix(1.8268 0.1152 -0.1841 1.1425 61.3728 286.4877)" gradientUnits="userSpaceOnUse">
							<stop  offset="0" style="stop-color:#D5E305"/>
							<stop  offset="1" style="stop-color:#51B800"/>
						</radialGradient>
						<path style="fill:url(#SVGID_00000092445276869750775970000003822794012982526084_);" d="M28.111,179.947
							c10.488,7.753,21.659,16.987,35.324,25.349c2.928,1.79,6.117,3.371,9.434,4.696c-13.198-9.359-27.727-20.574-44.548-29.935
							C28.251,180.018,28.181,179.986,28.111,179.947z"/>
						
							<radialGradient id="SVGID_00000162312630836622542350000010069475594800604854_" cx="138.4141" cy="-303.3076" r="395.1599" gradientTransform="matrix(1.8268 0.1152 -0.1841 1.1425 61.3728 286.4877)" gradientUnits="userSpaceOnUse">
							<stop  offset="0" style="stop-color:#D5E305"/>
							<stop  offset="1" style="stop-color:#51B800"/>
						</radialGradient>
						<path style="fill:url(#SVGID_00000162312630836622542350000010069475594800604854_);" d="M288,138.871
							c-13.231,3.567-27.406,6.605-42.133,4.808c-18.111-2.219-35.491-9.987-54.052-10.832
							c-16.905-0.755-33.379,10.289-44.77,26.694c-13.129,18.926-20.755,39.234-37.052,50.516
							c-9.136,6.307-24.123,5.128-37.125-0.065c17.494,12.405,32.648,21.546,47.677,18.751c28.592-5.382,38.696-33.761,60.69-53.308
							c18.5-16.418,46.167-24.358,76.184-24.697c9.581-0.105,19.881,0.38,30.581,1.884V138.871z"/>
						
							<radialGradient id="SVGID_00000060729722403177677440000017811917029400775065_" cx="141.9036" cy="-228.495" r="341.9991" gradientTransform="matrix(1.8268 0.1152 -0.1841 1.1425 61.3728 286.4877)" gradientUnits="userSpaceOnUse">
							<stop  offset="0" style="stop-color:#D5E305"/>
							<stop  offset="1" style="stop-color:#51B800"/>
						</radialGradient>
						<path style="fill:url(#SVGID_00000060729722403177677440000017811917029400775065_);" d="M288,147.824
							c-2.615-0.61-5.221-1.13-7.813-1.54c-17.587-2.77-35.757-2.886-53.407-1.378c-0.18,0.016-0.362,0.039-0.542,0.056
							c23.144,13.932,43.415,25.773,58.841,22.31c1.008-0.228,1.977-0.502,2.922-0.803V147.824z"/>
						
							<radialGradient id="SVGID_00000122700582366111974970000013392950663632123576_" cx="141.9048" cy="-228.4949" r="342.011" gradientTransform="matrix(1.8268 0.1152 -0.1841 1.1425 61.3728 286.4877)" gradientUnits="userSpaceOnUse">
							<stop  offset="0" style="stop-color:#D5E305"/>
							<stop  offset="1" style="stop-color:#51B800"/>
						</radialGradient>
						<path style="fill:url(#SVGID_00000122700582366111974970000013392950663632123576_);" d="M10.297,174.458
							c-9.024,2.118-8.708,9.586-8.708,9.586c4.99-5.635,14.378-7.131,23.143-5.014C18.464,175.388,13.667,173.675,10.297,174.458z"
							/>
						
							<radialGradient id="SVGID_00000173157029209647592050000000855759656605538741_" cx="141.8994" cy="-228.4883" r="341.996" gradientTransform="matrix(1.8268 0.1152 -0.1841 1.1425 61.3728 286.4877)" gradientUnits="userSpaceOnUse">
							<stop  offset="0" style="stop-color:#D5E305"/>
							<stop  offset="1" style="stop-color:#51B800"/>
						</radialGradient>
						<path style="fill:url(#SVGID_00000173157029209647592050000000855759656605538741_);" d="M32.18,181.811
							c-2.342-1.239-4.87-2.159-7.448-2.782c7.845,4.559,17.997,12.143,30.562,21.672c7.349,5.571,15.153,11.508,23.789,14.902
							c-2.77-1.91-5.56-3.94-8.385-6.056C57.491,199.653,45.793,189.02,32.18,181.811z"/>
						
							<radialGradient id="SVGID_00000177486835739883589960000005725100686603065531_" cx="141.9063" cy="-228.4956" r="342.0084" gradientTransform="matrix(1.8268 0.1152 -0.1841 1.1425 61.3728 286.4877)" gradientUnits="userSpaceOnUse">
							<stop  offset="0" style="stop-color:#D5E305"/>
							<stop  offset="1" style="stop-color:#51B800"/>
						</radialGradient>
						<path style="fill:url(#SVGID_00000177486835739883589960000005725100686603065531_);" d="M182.66,125.67
							c-9.583-0.726-18.9,3.78-25.155,10.178c-16.148,16.548-22.118,38.548-32.882,57.178
							c-8.846,15.296-21.377,25.942-33.215,25.355c-4.304-0.219-8.4-1.236-12.325-2.779c9.326,6.43,18.417,11.431,27.75,13.168
							c9.882,1.83,20.797-2.079,28.025-8.319c19.041-16.467,27.049-38.371,42.762-54.294c13.079-13.236,31.171-19.602,48.617-21.196
							c-2.843-1.711-5.727-3.453-8.653-5.203C205.211,132.363,193.548,126.504,182.66,125.67z"/>
						
							<radialGradient id="SVGID_00000036936694225378989340000001137218558043814318_" cx="91.5931" cy="-634.9566" r="722.5307" gradientTransform="matrix(1.8268 0.1152 -0.1841 1.1425 61.3728 286.4877)" gradientUnits="userSpaceOnUse">
							<stop  offset="0" style="stop-color:#D5E305"/>
							<stop  offset="1" style="stop-color:#51B800"/>
						</radialGradient>
						<path style="fill:url(#SVGID_00000036936694225378989340000001137218558043814318_);" d="M68.881,197.25
							c0,0,7.393,5.301,21.042,15.826c12.475,9.619,29.753,25.204,49.348,25.302c-6.357-0.974-12.735-2.924-18.58-5.848
							C101.987,223.161,86.641,208.979,68.881,197.25z"/>
						
							<radialGradient id="SVGID_00000035506492481071984500000004984797440097181330_" cx="91.5952" cy="-634.9913" r="722.5748" gradientTransform="matrix(1.8268 0.1152 -0.1841 1.1425 61.3728 286.4877)" gradientUnits="userSpaceOnUse">
							<stop  offset="0" style="stop-color:#D5E305"/>
							<stop  offset="1" style="stop-color:#51B800"/>
						</radialGradient>
						<path style="fill:url(#SVGID_00000035506492481071984500000004984797440097181330_);" d="M288,158.284
							c-0.781-0.156-1.559-0.315-2.346-0.46c-32.933-6.046-65.126,5.507-84.216,25.883c-22.058,23.577-34.752,51.279-57.094,54.356
							c-1.708,0.232-3.399,0.324-5.074,0.315c9.715,1.489,19.378,0.677,27-2.591c31.199-13.421,48.434-38.308,78.272-45.805
							c13.265-3.32,28.126-3.153,43.458-0.785V158.284z"/>
					</g>
					<g>
						
							<radialGradient id="SVGID_00000060743162858204227370000016355398274220090277_" cx="-163.0906" cy="240.0471" r="371.9515" gradientTransform="matrix(1.8046 -0.2116 0.3384 1.1286 487.8298 2.0607)" gradientUnits="userSpaceOnUse">
							<stop  offset="0.043" style="stop-color:#FFC800"/>
							<stop  offset="0.2299" style="stop-color:#FFC300"/>
							<stop  offset="0.4358" style="stop-color:#FFB600"/>
							<stop  offset="0.6509" style="stop-color:#FFA000"/>
							<stop  offset="0.8708" style="stop-color:#FF8200"/>
							<stop  offset="1" style="stop-color:#FF6C00"/>
						</radialGradient>
						<path style="fill:url(#SVGID_00000060743162858204227370000016355398274220090277_);" d="M101.087,128.665
							c-20.514-14.358-38.059-29.02-56.749-39.105C29.164,81.379,12.79,77.584,0,80.15v41.721
							c13.896,8.299,27.584,20.438,41.777,30.822c21.234,15.529,43.922,29.199,62.464,25.608
							c15.009-2.932,25.371-14.877,35.279-29.686C127.014,145.47,113.57,137.398,101.087,128.665z"/>
						
							<radialGradient id="SVGID_00000039125038328489646180000007456797018782041522_" cx="-163.0895" cy="240.0495" r="371.9587" gradientTransform="matrix(1.8046 -0.2116 0.3384 1.1286 487.8298 2.0607)" gradientUnits="userSpaceOnUse">
							<stop  offset="0.043" style="stop-color:#FFC800"/>
							<stop  offset="0.2299" style="stop-color:#FFC300"/>
							<stop  offset="0.4358" style="stop-color:#FFB600"/>
							<stop  offset="0.6509" style="stop-color:#FFA000"/>
							<stop  offset="0.8708" style="stop-color:#FF8200"/>
							<stop  offset="1" style="stop-color:#FF6C00"/>
						</radialGradient>
						<path style="fill:url(#SVGID_00000039125038328489646180000007456797018782041522_);" d="M154.294,139.121
							c9.301-9.301,21.995-15.908,35.155-18.616c4.809-7.66,9.383-15.688,14.807-22.606c-1.05-0.323-2.106-0.624-3.177-0.886
							c-19.844-4.813-38.727,15.505-51.559,35.926c-3.389,5.394-6.669,10.696-10.001,15.676c2.109,0.53,4.19,0.916,6.237,1.147
							C148.327,145.82,151.207,142.208,154.294,139.121z"/>
						
							<radialGradient id="SVGID_00000168833901154713532550000002447649721899127971_" cx="-163.0896" cy="240.0454" r="371.9521" gradientTransform="matrix(1.8046 -0.2116 0.3384 1.1286 487.8298 2.0607)" gradientUnits="userSpaceOnUse">
							<stop  offset="0.043" style="stop-color:#FFC800"/>
							<stop  offset="0.2299" style="stop-color:#FFC300"/>
							<stop  offset="0.4358" style="stop-color:#FFB600"/>
							<stop  offset="0.6509" style="stop-color:#FFA000"/>
							<stop  offset="0.8708" style="stop-color:#FF8200"/>
							<stop  offset="1" style="stop-color:#FF6C00"/>
						</radialGradient>
						<path style="fill:url(#SVGID_00000168833901154713532550000002447649721899127971_);" d="M288,94.942
							c-19.426-7.582-36.895-17.023-53.258-15.468c-13.759,1.337-22.944,8.808-30.485,18.425
							c27.672,8.506,48.357,37.683,83.743,60.153V94.942z"/>
						
							<radialGradient id="SVGID_00000010279961723543348840000017084189634759146628_" cx="-76.9335" cy="-50.5852" r="337.0599" gradientTransform="matrix(1.8046 -0.2116 0.3384 1.1286 487.8298 2.0607)" gradientUnits="userSpaceOnUse">
							<stop  offset="0.043" style="stop-color:#FFC800"/>
							<stop  offset="0.2299" style="stop-color:#FFC300"/>
							<stop  offset="0.4358" style="stop-color:#FFB600"/>
							<stop  offset="0.6509" style="stop-color:#FFA000"/>
							<stop  offset="0.8708" style="stop-color:#FF8200"/>
							<stop  offset="1" style="stop-color:#FF6C00"/>
						</radialGradient>
						<path style="fill:url(#SVGID_00000010279961723543348840000017084189634759146628_);" d="M154.294,139.121
							c1.418-1.418,2.924-2.765,4.489-4.054c-27.196-9.083-55.093-32.112-80.279-44.447C46.052,74.743,17.183,74.006,1.5,79.329
							c-0.51,0.174-1.01,0.347-1.5,0.522v14.381c8.929,2.559,20.774,7.804,35.525,16.031c38.638,21.562,68.777,49.638,98.306,47.389
							c2.964-0.232,5.705-0.807,8.282-1.649C145.452,149.611,149.64,143.775,154.294,139.121z"/>
						
							<radialGradient id="SVGID_00000154415588260802516220000018149977527745154722_" cx="-76.9318" cy="-50.5884" r="337.063" gradientTransform="matrix(1.8046 -0.2116 0.3384 1.1286 487.8298 2.0607)" gradientUnits="userSpaceOnUse">
							<stop  offset="0.043" style="stop-color:#FFC800"/>
							<stop  offset="0.2299" style="stop-color:#FFC300"/>
							<stop  offset="0.4358" style="stop-color:#FFB600"/>
							<stop  offset="0.6509" style="stop-color:#FFA000"/>
							<stop  offset="0.8708" style="stop-color:#FF8200"/>
							<stop  offset="1" style="stop-color:#FF6C00"/>
						</radialGradient>
						<path style="fill:url(#SVGID_00000154415588260802516220000018149977527745154722_);" d="M288,123.061V76.21
							c-8.259-2.067-16.352-3.353-23.998-2.145c-10.263,1.634-18.648,8.398-26.261,17.247c10.358,5.202,20.883,13.02,32.776,21.042
							C276.21,116.195,282.108,119.932,288,123.061z"/>
						
							<radialGradient id="SVGID_00000000182601777028590130000015142217218869812116_" cx="-76.9314" cy="-50.5895" r="337.0681" gradientTransform="matrix(1.8046 -0.2116 0.3384 1.1286 487.8298 2.0607)" gradientUnits="userSpaceOnUse">
							<stop  offset="0.043" style="stop-color:#FFC800"/>
							<stop  offset="0.2299" style="stop-color:#FFC300"/>
							<stop  offset="0.4358" style="stop-color:#FFB600"/>
							<stop  offset="0.6509" style="stop-color:#FFA000"/>
							<stop  offset="0.8708" style="stop-color:#FF8200"/>
							<stop  offset="1" style="stop-color:#FF6C00"/>
						</radialGradient>
						<path style="fill:url(#SVGID_00000000182601777028590130000015142217218869812116_);" d="M202.535,119.139
							c4.561,0,8.995,0.475,13.288,1.368c4.521-5.435,8.65-11.56,12.963-17.612c2.904-4.075,5.867-7.995,8.953-11.581
							c-5.013-2.518-9.987-4.431-15.056-5.442c-11.99-2.378-24.542,4.751-32.293,14.482c-6.664,8.38-12.139,17.412-17.54,25.778
							C182.171,121.656,192.496,119.139,202.535,119.139z"/>
						
							<radialGradient id="SVGID_00000055703956064065667000000002336227867852065963_" cx="-81.3181" cy="14.2732" r="299.8568" gradientTransform="matrix(1.8046 -0.2116 0.3384 1.1286 487.8298 2.0607)" gradientUnits="userSpaceOnUse">
							<stop  offset="0.043" style="stop-color:#FFC800"/>
							<stop  offset="0.2299" style="stop-color:#FFC300"/>
							<stop  offset="0.4358" style="stop-color:#FFB600"/>
							<stop  offset="0.6509" style="stop-color:#FFA000"/>
							<stop  offset="0.8708" style="stop-color:#FF8200"/>
							<stop  offset="1" style="stop-color:#FF6C00"/>
						</radialGradient>
						<path style="fill:url(#SVGID_00000055703956064065667000000002336227867852065963_);" d="M154.294,139.121
							c2.53-2.53,5.322-4.849,8.296-6.956c-1.249-0.216-2.489-0.44-3.714-0.677c-39.024-7.547-67.386-18.465-91.438-23.753
							C30.909,99.715,8.872,102.016,0,103.713v1.853c28.672,5.476,52.965,23.926,80.914,37.809
							c20.944,10.395,44.947,15.737,61.594,11.854C145.779,149.138,149.827,143.588,154.294,139.121z"/>
						
							<radialGradient id="SVGID_00000055671308706044118830000011202624743678192548_" cx="-81.3169" cy="14.2708" r="299.8604" gradientTransform="matrix(1.8046 -0.2116 0.3384 1.1286 487.8298 2.0607)" gradientUnits="userSpaceOnUse">
							<stop  offset="0.043" style="stop-color:#FFC800"/>
							<stop  offset="0.2299" style="stop-color:#FFC300"/>
							<stop  offset="0.4358" style="stop-color:#FFB600"/>
							<stop  offset="0.6509" style="stop-color:#FFA000"/>
							<stop  offset="0.8708" style="stop-color:#FF8200"/>
							<stop  offset="1" style="stop-color:#FF6C00"/>
						</radialGradient>
						<path style="fill:url(#SVGID_00000055671308706044118830000011202624743678192548_);" d="M202.535,119.139
							c9.8,0,19.009,2.19,27.495,6.057c10.333-5.264,20.122-12.48,29.941-20.734c2.546-2.14,5.044-4.227,7.513-6.25
							c-9.115-6.193-18.307-11.668-28.614-14.733c-8.137-2.412-17.546-1.931-24.375,1.531c-8.039,4.082-14.29,11.133-20.446,19.2
							c-4.692,6.152-8.913,12.529-13.261,18.678C187.863,120.468,195.273,119.139,202.535,119.139z"/>
						
							<radialGradient id="SVGID_00000101815848905883329870000012027536969070630790_" cx="-81.3164" cy="14.2701" r="299.8613" gradientTransform="matrix(1.8046 -0.2116 0.3384 1.1286 487.8298 2.0607)" gradientUnits="userSpaceOnUse">
							<stop  offset="0.043" style="stop-color:#FFC800"/>
							<stop  offset="0.2299" style="stop-color:#FFC300"/>
							<stop  offset="0.4358" style="stop-color:#FFB600"/>
							<stop  offset="0.6509" style="stop-color:#FFA000"/>
							<stop  offset="0.8708" style="stop-color:#FF8200"/>
							<stop  offset="1" style="stop-color:#FF6C00"/>
						</radialGradient>
						<path style="fill:url(#SVGID_00000101815848905883329870000012027536969070630790_);" d="M288,83.231
							c-6.831,4.138-13.555,9.282-20.515,14.983c6.739,4.578,13.441,9.544,20.515,14.229V83.231z"/>
						
							<radialGradient id="SVGID_00000075862276611272162410000001786395821566103696_" cx="-145.5693" cy="-291.961" r="561.2501" gradientTransform="matrix(1.8046 -0.2116 0.3384 1.1286 487.8298 2.0607)" gradientUnits="userSpaceOnUse">
							<stop  offset="0.043" style="stop-color:#FFC800"/>
							<stop  offset="0.2299" style="stop-color:#FFC300"/>
							<stop  offset="0.4358" style="stop-color:#FFB600"/>
							<stop  offset="0.6509" style="stop-color:#FFA000"/>
							<stop  offset="0.8708" style="stop-color:#FF8200"/>
							<stop  offset="1" style="stop-color:#FF6C00"/>
						</radialGradient>
						<path style="fill:url(#SVGID_00000075862276611272162410000001786395821566103696_);" d="M73.618,172.339
							c0,0,7.297,3.931,21.13,4.521c1.813,0.076,3.783,0.018,5.831-0.166C91.714,177.268,82.073,175.756,73.618,172.339z"/>
						
							<radialGradient id="SVGID_00000056424720100916180010000017816670161238871938_" cx="-145.5679" cy="-291.9895" r="561.2897" gradientTransform="matrix(1.8046 -0.2116 0.3384 1.1286 487.8298 2.0607)" gradientUnits="userSpaceOnUse">
							<stop  offset="0.043" style="stop-color:#FFC800"/>
							<stop  offset="0.2299" style="stop-color:#FFC300"/>
							<stop  offset="0.4358" style="stop-color:#FFB600"/>
							<stop  offset="0.6509" style="stop-color:#FFA000"/>
							<stop  offset="0.8708" style="stop-color:#FF8200"/>
							<stop  offset="1" style="stop-color:#FF6C00"/>
						</radialGradient>
						<path style="fill:url(#SVGID_00000056424720100916180010000017816670161238871938_);" d="M100.579,176.693
							c7.499-0.486,14.444-2.459,19.63-6.088c1.692-1.187,3.288-2.465,4.82-3.807c-2.792,2.176-5.624,4.016-8.505,5.467
							C111.273,174.908,105.661,176.235,100.579,176.693z"/>
						
							<radialGradient id="SVGID_00000063630622005628978280000012378236082692226187_" cx="-145.5668" cy="-291.9839" r="561.2809" gradientTransform="matrix(1.8046 -0.2116 0.3384 1.1286 487.8298 2.0607)" gradientUnits="userSpaceOnUse">
							<stop  offset="0.043" style="stop-color:#FFC800"/>
							<stop  offset="0.2299" style="stop-color:#FFC300"/>
							<stop  offset="0.4358" style="stop-color:#FFB600"/>
							<stop  offset="0.6509" style="stop-color:#FFA000"/>
							<stop  offset="0.8708" style="stop-color:#FF8200"/>
							<stop  offset="1" style="stop-color:#FF6C00"/>
						</radialGradient>
						<path style="fill:url(#SVGID_00000063630622005628978280000012378236082692226187_);" d="M153.705,126.801
							c-9.308,14.841-16.81,29.607-28.676,39.998c5.297-4.128,10.447-9.486,15.491-15.849c8.34-10.526,15.774-22.973,25.303-35.433
							c4.896-6.398,10.252-12.619,16.562-17.319C170.909,102.025,161.743,113.989,153.705,126.801z"/>
						
							<radialGradient id="SVGID_00000106846568063215288260000010302883218619557547_" cx="-145.5679" cy="-291.9759" r="561.2695" gradientTransform="matrix(1.8046 -0.2116 0.3384 1.1286 487.8298 2.0607)" gradientUnits="userSpaceOnUse">
							<stop  offset="0.043" style="stop-color:#FFC800"/>
							<stop  offset="0.2299" style="stop-color:#FFC300"/>
							<stop  offset="0.4358" style="stop-color:#FFB600"/>
							<stop  offset="0.6509" style="stop-color:#FFA000"/>
							<stop  offset="0.8708" style="stop-color:#FF8200"/>
							<stop  offset="1" style="stop-color:#FF6C00"/>
						</radialGradient>
						<path style="fill:url(#SVGID_00000106846568063215288260000010302883218619557547_);" d="M288,131.122
							c-14.99-8.081-28.219-18.474-42.727-27.059c-16.754-9.907-33.979-15.972-47.001-13.271
							c-5.966,1.245-11.189,3.905-15.886,7.404c2.285-0.762,4.66-1.209,7.139-1.268c16.532-0.366,34.053,13.418,52.421,29.112
							c16.401,14.017,30.51,28.201,46.055,36.788V131.122z"/>
					</g>
					<g>
						<path style="fill:#FFFFFF;" d="M215.59,96.527c-11.6-4.192-24.455-3.683-33.005,0.714
							c-10.137,5.224-17.269,13.838-24.016,22.973c-14.912,20.204-25.049,39.235-39.621,52.061
							c-10.021,8.593-26.482,11.11-39.183,7.413c-15.869-4.63-29.217-13.495-42.131-21.625C22.938,148.811,10.371,141.654,0,137.09
							v25.914c11.592,5.159,23.806,13.47,34.861,21.908c24.27,18.527,50.916,37.474,69.161,30.806
							c24.107-8.87,29.887-38.695,47.906-64.62c7.272-9.781,16.246-17.499,27.116-19.608c10.336-1.996,22.681,1.057,34.406,5.275
							c25.052,9.021,49.742,18.153,68.336,12.475c2.128-0.652,4.194-1.403,6.214-2.215v-6.953
							C263.552,127.559,243.869,106.773,215.59,96.527z"/>
						<g>
							
								<radialGradient id="SVGID_00000048476502934489988770000002198927683076973982_" cx="-5.9647" cy="113.6277" r="359.7881" gradientTransform="matrix(1.836 0 0 1.1482 218.1682 194.8215)" gradientUnits="userSpaceOnUse">
								<stop  offset="0" style="stop-color:#F1F1F1"/>
								<stop  offset="0.4731" style="stop-color:#EBEBEB"/>
								<stop  offset="1" style="stop-color:#E1E1E1"/>
							</radialGradient>
							<path style="fill:url(#SVGID_00000048476502934489988770000002198927683076973982_);" d="M223.587,138.439
								c-12.132-9.895-23.278-18.377-34.957-23.049c-9.197-3.672-19.995-3.52-26.92,0.325
								c-18.71,10.424-24.834,31.937-37.028,50.887c-10.412,16.166-27.224,27.455-42.166,24.417
								c-19.939-4.078-36.413-18.517-54.268-31.88C18.261,151.665,9.002,144.782,0,139.647v23.356
								c11.592,5.159,23.806,13.47,34.861,21.908c21.331,16.283,41.364,33.801,61.572,32.417
								c19.376-1.363,31.071-23.214,43.603-46.271c12.256-22.544,29.393-43.545,50.943-40.802
								c13.862,1.785,27.109,8.741,40.484,14.785C228.867,142.819,226.244,140.607,223.587,138.439z"/>
							
								<radialGradient id="SVGID_00000076601404404558028510000004874840969665920645_" cx="-5.9647" cy="113.6276" r="359.7869" gradientTransform="matrix(1.836 0 0 1.1482 218.1682 194.8215)" gradientUnits="userSpaceOnUse">
								<stop  offset="0" style="stop-color:#F1F1F1"/>
								<stop  offset="0.4731" style="stop-color:#EBEBEB"/>
								<stop  offset="1" style="stop-color:#E1E1E1"/>
							</radialGradient>
							<path style="fill:url(#SVGID_00000076601404404558028510000004874840969665920645_);" d="M288,149.997
								c-5.42,2.325-11.127,4.039-17.401,4.573c-13.589,1.139-26.42-3.783-39.136-9.529c19.647,16.818,37.721,34.239,56.537,37.822
								V149.997z"/>
							
								<radialGradient id="SVGID_00000075147097986313383220000005069593417487402679_" cx="68.7709" cy="-188.4026" r="337.3648" gradientTransform="matrix(1.836 0 0 1.1482 218.1682 194.8215)" gradientUnits="userSpaceOnUse">
								<stop  offset="0" style="stop-color:#F1F1F1"/>
								<stop  offset="0.4731" style="stop-color:#EBEBEB"/>
								<stop  offset="1" style="stop-color:#E1E1E1"/>
							</radialGradient>
							<path style="fill:url(#SVGID_00000075147097986313383220000005069593417487402679_);" d="M109.286,178.607
								c-13.342,6.193-33.812,0.85-49.034-7.166C34.042,157.622,14.87,144.62,0,137.374v13.965
								c6.739,4.005,14.478,9.19,23.355,15.608c18.233,13.182,33.755,25.792,51.03,31.134c13.018,4.013,28.446-0.682,37.144-9.674
								c8.782-9.1,14.579-19.874,19.895-30.208C125.202,167.102,118.358,174.381,109.286,178.607z"/>
							
								<radialGradient id="SVGID_00000062910873977663693210000001029303466009370257_" cx="68.771" cy="-188.4024" r="337.3629" gradientTransform="matrix(1.836 0 0 1.1482 218.1682 194.8215)" gradientUnits="userSpaceOnUse">
								<stop  offset="0" style="stop-color:#F1F1F1"/>
								<stop  offset="0.4731" style="stop-color:#EBEBEB"/>
								<stop  offset="1" style="stop-color:#E1E1E1"/>
							</radialGradient>
							<path style="fill:url(#SVGID_00000062910873977663693210000001029303466009370257_);" d="M131.425,158.197
								c5.564-7.961,10.631-17.221,16.348-26.763c0.05-0.083,0.099-0.164,0.149-0.247
								C141.34,138.462,136.609,148.118,131.425,158.197z"/>
							
								<radialGradient id="SVGID_00000171689061109558240310000006745441923420094619_" cx="68.7711" cy="-188.4025" r="337.3664" gradientTransform="matrix(1.836 0 0 1.1482 218.1682 194.8215)" gradientUnits="userSpaceOnUse">
								<stop  offset="0" style="stop-color:#F1F1F1"/>
								<stop  offset="0.4731" style="stop-color:#EBEBEB"/>
								<stop  offset="1" style="stop-color:#E1E1E1"/>
							</radialGradient>
							<path style="fill:url(#SVGID_00000171689061109558240310000006745441923420094619_);" d="M222.193,122.251
								c-10.421-8.602-20.342-15.76-30.826-18.885c-8.263-2.456-18.065-0.734-24.415,3.954
								c-7.791,5.762-13.315,14.339-19.031,23.867c5.115-5.655,11.348-9.875,19.796-11.726c12.121-2.63,28.554,4.967,44.384,15.738
								c18.029,12.273,33.9,26.84,54.101,35.349c6.149,2.586,12.902,4.155,19.056,3.978c-9.732-5.303-19.074-13.111-29.055-21.95
								C244.719,142.405,233.775,131.815,222.193,122.251z"/>
							
								<radialGradient id="SVGID_00000170273794599415512850000000246060866685848987_" cx="69.1487" cy="-129.6156" r="299.3405" gradientTransform="matrix(1.836 0 0 1.1482 218.1682 194.8215)" gradientUnits="userSpaceOnUse">
								<stop  offset="0" style="stop-color:#F1F1F1"/>
								<stop  offset="0.4731" style="stop-color:#EBEBEB"/>
								<stop  offset="1" style="stop-color:#E1E1E1"/>
							</radialGradient>
							<path style="fill:url(#SVGID_00000170273794599415512850000000246060866685848987_);" d="M288,140.07
								c-0.444-0.227-0.888-0.454-1.331-0.689c-24.227-12.864-43.76-32.957-71.08-42.854c-10.705-3.869-22.408-3.93-30.597-0.422
								c-9.424,4.046-16.389,11.342-22.73,19.288c-1.196,1.5-2.346,3-3.478,4.5c2.517-1.559,5.24-2.803,8.242-3.651
								c17.64-4.943,41.81,13.056,64.781,31.684c20.285,16.45,40.947,31.193,56.192,30.925V140.07z"/>
							
								<radialGradient id="SVGID_00000044880222464178741180000017806836081079188899_" cx="69.1486" cy="-129.6155" r="299.3368" gradientTransform="matrix(1.836 0 0 1.1482 218.1682 194.8215)" gradientUnits="userSpaceOnUse">
								<stop  offset="0" style="stop-color:#F1F1F1"/>
								<stop  offset="0.4731" style="stop-color:#EBEBEB"/>
								<stop  offset="1" style="stop-color:#E1E1E1"/>
							</radialGradient>
							<path style="fill:url(#SVGID_00000044880222464178741180000017806836081079188899_);" d="M125.727,165.6
								c-10.863,11.82-24.422,19.345-37.237,20.274c-13.119,0.941-25.911-3.358-36.543-7.93
								c-24.911-10.722-39.44-20.533-50.278-24.411c-0.574-0.205-1.129-0.393-1.669-0.569v2.05
								c24.059,10.277,41.792,32.006,67.275,42.314c11.021,4.448,24.22,4.68,32.632,0.171c10.439-5.608,17.328-15.544,23.939-26.516
								c1.881-3.123,3.645-6.26,5.342-9.368C128.056,162.974,126.91,164.311,125.727,165.6z"/>
							
								<radialGradient id="SVGID_00000164493436144841295860000014706310790202670980_" cx="69.1488" cy="-129.6153" r="299.3354" gradientTransform="matrix(1.836 0 0 1.1482 218.1682 194.8215)" gradientUnits="userSpaceOnUse">
								<stop  offset="0" style="stop-color:#F1F1F1"/>
								<stop  offset="0.4731" style="stop-color:#EBEBEB"/>
								<stop  offset="1" style="stop-color:#E1E1E1"/>
							</radialGradient>
							<path style="fill:url(#SVGID_00000164493436144841295860000014706310790202670980_);" d="M129.188,161.614
								c10.071-12.1,18.378-26.848,29.598-41.721C145.952,127.841,138.651,144.273,129.188,161.614z"/>
							
								<radialGradient id="SVGID_00000085932204433675361200000003351416394178639501_" cx="16.6928" cy="-432.1697" r="569.0963" gradientTransform="matrix(1.836 0 0 1.1482 218.1682 194.8215)" gradientUnits="userSpaceOnUse">
								<stop  offset="0" style="stop-color:#F1F1F1"/>
								<stop  offset="0.4731" style="stop-color:#EBEBEB"/>
								<stop  offset="1" style="stop-color:#E1E1E1"/>
							</radialGradient>
							<path style="fill:url(#SVGID_00000085932204433675361200000003351416394178639501_);" d="M65.846,207.201
								c0,0,6.246,5.792,20.33,8.112c3.271,0.536,7.259,0.487,11.264-0.395C87.43,215.813,75.536,212.952,65.846,207.201z"/>
							
								<radialGradient id="SVGID_00000026847805875292493300000000139813515898036369_" cx="16.6928" cy="-432.1692" r="569.0953" gradientTransform="matrix(1.836 0 0 1.1482 218.1682 194.8215)" gradientUnits="userSpaceOnUse">
								<stop  offset="0" style="stop-color:#F1F1F1"/>
								<stop  offset="0.4731" style="stop-color:#EBEBEB"/>
								<stop  offset="1" style="stop-color:#E1E1E1"/>
							</radialGradient>
							<path style="fill:url(#SVGID_00000026847805875292493300000000139813515898036369_);" d="M127.702,184.84
								c-6.602,11.962-13.248,21.236-21.175,26.371c-2.818,1.823-5.958,3.019-9.087,3.707c5.317-0.476,10.103-2.009,13.744-4.737
								c14.762-11.085,21.982-29.011,32.452-46.48c9.679-16.142,20.804-29.802,36.363-32.384c9.855-1.623,20.753,1.073,31.962,4.972
								c-9.138-5.346-17.925-9.415-26.857-10.772C157.361,121.35,142.254,158.456,127.702,184.84z"/>
							
								<radialGradient id="SVGID_00000120524885246481070550000005407297511745201342_" cx="16.6928" cy="-432.1689" r="569.0958" gradientTransform="matrix(1.836 0 0 1.1482 218.1682 194.8215)" gradientUnits="userSpaceOnUse">
								<stop  offset="0" style="stop-color:#F1F1F1"/>
								<stop  offset="0.4731" style="stop-color:#EBEBEB"/>
								<stop  offset="1" style="stop-color:#E1E1E1"/>
							</radialGradient>
							<path style="fill:url(#SVGID_00000120524885246481070550000005407297511745201342_);" d="M288,146.95
								c-3.642,1.534-7.439,2.818-11.53,3.639c-13.853,2.771-30.795-1.539-47.325-7.851c-5.746-2.195-11.504-4.474-17.183-6.449
								c8.237,4.819,16.758,10.674,25.939,16.56c17.035,10.918,36.391,20.041,50.099,16.988V146.95z"/>
						</g>
					</g>
				</g>
			</g>
		</g>
	</g>
	<path style="fill:#FFFFFF;" d="M56.015,138.717c0.388,0.378,0.73,0.712,1.012,0.997c0.133,0.134,0.205,0.311,0.205,0.499v33.402
		c0.263,0.141,0.522,0.286,0.786,0.423c6.381,2.611,12.763,5.221,19.144,7.832c1.572,0.441,3.115,0.933,4.644,1.447v-43.801
		c0-0.262,0.143-0.501,0.374-0.625l0.008-0.004c0.132-0.075,3.259-1.896,3.259-7.135v-19.059c0-1.884-1.532-3.416-3.416-3.416
		c-1.883,0-3.416,1.532-3.416,3.416v4.242c0,0.391-0.318,0.71-0.709,0.71c-0.391,0-0.709-0.318-0.709-0.71v-5.753
		c0-1.883-1.532-3.416-3.416-3.416c-1.884,0-3.416,1.532-3.416,3.416v4.87c0,0.391-0.318,0.709-0.709,0.709
		c-0.391,0-0.709-0.319-0.709-0.709v-5.567c0-1.884-1.533-3.416-3.416-3.416c-1.883,0-3.416,1.532-3.416,3.416v4.899
		c0,0.391-0.318,0.709-0.71,0.709c-0.391,0-0.709-0.318-0.709-0.768V90.054c0-1.883-1.532-3.416-3.417-3.416
		c-1.883,0-3.415,1.532-3.415,3.416v33.796c0,0.391-0.319,0.709-0.709,0.709c-0.391,0-0.71-0.318-0.71-0.709v-7.508l-0.561,0.203
		c-3.472,1.259-5.508,3.03-6.052,5.264C44.462,127.439,52.508,135.293,56.015,138.717z M56.904,91.328
		c-0.1-0.953,0.05-2.9,0.95-2.527c0.759,0.314,0.8,0.87,0.9,2.527c0.1,1.657,0.35,3.273,0.35,4.101c0,0.829-0.7,1.616-1.4,1.491
		c-0.7-0.124-1.2-0.787-1.05-1.947C56.804,93.813,57.004,92.281,56.904,91.328z"/>
	<g>
		
			<ellipse transform="matrix(0.2432 -0.97 0.97 0.2432 -128.0606 208.206)" style="fill:#FFFFFF;" cx="69.398" cy="186.17" rx="30.631" ry="30.631"/>
		
			<linearGradient id="SVGID_00000140719247194465566420000017653042554458979234_" gradientUnits="userSpaceOnUse" x1="69.657" y1="175.78" x2="69.657" y2="252.4607">
			<stop  offset="0" style="stop-color:#00509E"/>
			<stop  offset="0.3234" style="stop-color:#0068CE"/>
			<stop  offset="1" style="stop-color:#FFFFFF"/>
		</linearGradient>
		<path style="fill:url(#SVGID_00000140719247194465566420000017653042554458979234_);" d="M69.658,154.102
			c-17.686,0-32.025,14.337-32.025,32.024c0,17.685,14.339,32.023,32.025,32.023c17.685,0,32.024-14.338,32.024-32.023
			C101.682,168.439,87.343,154.102,69.658,154.102z M99.398,188.111c-0.817,0.017-1.468,0.695-1.449,1.514
			c0.015,0.68,0.487,1.237,1.116,1.398c-0.121,0.729-0.268,1.449-0.441,2.158l-14.958-4.77l-10.118-1.706
			c0.027-0.173,0.049-0.349,0.053-0.53l10.213,1.074l15.656-1.097C99.471,186.811,99.442,187.462,99.398,188.111z M97.957,195.507
			c-0.029-0.008-0.055-0.022-0.086-0.029c-0.795-0.194-1.598,0.297-1.788,1.094c-0.168,0.695,0.184,1.394,0.807,1.688
			c-0.312,0.697-0.641,1.384-1.004,2.051l-13.28-8.425l-9.339-4.209c0.078-0.175,0.133-0.361,0.185-0.549l9.646,3.519l15.48,2.739
			C98.398,194.106,98.188,194.812,97.957,195.507z M82.845,212.706c-0.432-0.696-1.349-0.906-2.044-0.47
			c-0.609,0.381-0.846,1.133-0.6,1.78c-0.633,0.239-1.278,0.46-1.933,0.657l-3.521-15.366l-3.672-9.549
			c0.168-0.064,0.323-0.147,0.481-0.232l4.259,9.319l8.946,12.984c-0.604,0.356-1.222,0.692-1.852,1.005
			C82.888,212.79,82.872,212.746,82.845,212.706z M75.057,215.299c-0.241-0.782-1.074-1.22-1.855-0.976
			c-0.666,0.206-1.077,0.839-1.036,1.504c-0.758,0.064-1.524,0.103-2.297,0.108l0.943-15.733L69.973,190
			c0.234-0.019,0.464-0.054,0.684-0.111l1.877,10.065l5.541,14.773c-0.976,0.288-1.973,0.525-2.989,0.712
			C75.076,215.393,75.071,215.346,75.057,215.299z M58.473,212.198c-0.697-0.152-1.386,0.211-1.668,0.837
			c-0.54-0.257-1.068-0.535-1.59-0.825l8.519-13.255l4.258-9.303c0.173,0.082,0.356,0.143,0.543,0.199l-3.576,9.599l-2.856,15.524
			c-0.871-0.228-1.729-0.496-2.568-0.798c0.027-0.069,0.053-0.139,0.07-0.214C59.782,213.164,59.273,212.372,58.473,212.198z
			 M43.486,197.135c-0.388-0.59-1.125-0.811-1.761-0.572c-0.232-0.623-0.443-1.255-0.634-1.895l15.306-3.524l9.566-3.69
			c0.064,0.175,0.145,0.338,0.233,0.501l-9.306,4.322l-12.903,9.009c-0.389-0.655-0.754-1.325-1.092-2.012
			c0.057-0.027,0.112-0.051,0.164-0.085C43.745,198.742,43.935,197.821,43.486,197.135z M39.949,183.689
			c0.072,0.006,0.144,0.012,0.22,0.007c0.817-0.05,1.438-0.758,1.385-1.576c-0.045-0.694-0.565-1.244-1.221-1.36
			c0.112-0.624,0.24-1.241,0.393-1.851l14.92,4.759l10.125,1.708c-0.029,0.172-0.044,0.349-0.052,0.53l-10.22-1.075l-15.652,1.097
			C39.852,185.174,39.889,184.428,39.949,183.689z M41.481,176.376c0.069,0.024,0.137,0.049,0.212,0.063
			c0.803,0.161,1.584-0.365,1.741-1.169c0.135-0.69-0.233-1.36-0.849-1.637c0.285-0.618,0.586-1.227,0.913-1.821l13.207,8.379
			l9.372,4.224c-0.082,0.174-0.142,0.356-0.198,0.543l-9.665-3.527l-15.44-2.733C40.976,177.91,41.218,177.138,41.481,176.376z
			 M56.647,159.596c0.461,0.676,1.387,0.846,2.061,0.382c0.587-0.404,0.794-1.158,0.53-1.792c0.606-0.225,1.22-0.431,1.845-0.617
			l3.484,15.204l3.696,9.613c-0.167,0.064-0.323,0.143-0.478,0.226l-4.286-9.379l-8.861-12.859c0.614-0.358,1.24-0.698,1.881-1.014
			C56.553,159.441,56.594,159.52,56.647,159.596z M40.347,191.575c0.065-0.013,0.132-0.022,0.196-0.045
			c0.777-0.258,1.197-1.099,0.936-1.877c-0.22-0.659-0.861-1.057-1.524-1.004c-0.069-0.827-0.112-1.662-0.113-2.508l15.648,0.998
			l10.237-0.801c0.016,0.241,0.049,0.474,0.106,0.701l-10.091,1.89l-14.711,5.536C40.759,193.519,40.528,192.556,40.347,191.575z
			 M68.67,182.261l-1.89-10.138l-5.483-14.617c0.835-0.243,1.683-0.455,2.546-0.625c0.014,0.09,0.035,0.181,0.067,0.271
			c0.273,0.77,1.126,1.171,1.895,0.895c0.672-0.24,1.063-0.915,0.97-1.595c0.877-0.084,1.765-0.13,2.661-0.135l-0.932,15.56
			l0.844,10.275C69.115,182.171,68.888,182.203,68.67,182.261z M73.415,157.86c0.683,0,1.251-0.463,1.424-1.091
			c0.717,0.125,1.425,0.27,2.124,0.447l-4.84,14.829l-1.781,10.146c-0.186-0.034-0.375-0.052-0.569-0.059l1.037-10.256
			l-1.149-15.566c0.765,0,1.522,0.039,2.273,0.095C71.95,157.211,72.605,157.86,73.415,157.86z M80.496,159.754
			c0.663,0.176,1.335-0.13,1.659-0.697c0.633,0.293,1.254,0.602,1.863,0.937l-8.438,13.129l-4.284,9.362
			c-0.172-0.079-0.356-0.137-0.54-0.192l3.599-9.665l2.826-15.359c0.765,0.199,1.517,0.433,2.257,0.691
			C79.24,158.745,79.71,159.548,80.496,159.754z M86.858,163.395c0.598,0.339,1.33,0.215,1.788-0.254
			c0.695,0.573,1.362,1.181,2.001,1.815l-11.736,10.3l-6.703,7.821c-0.17-0.145-0.347-0.275-0.54-0.389l5.923-8.436l6.618-14.146
			c0.711,0.399,1.41,0.822,2.086,1.277C85.9,162.095,86.148,162.994,86.858,163.395z M92.08,168.539
			c0.494,0.483,1.233,0.547,1.797,0.209c0.445,0.619,0.873,1.251,1.27,1.905l-13.9,7.165l-8.384,5.957
			c-0.103-0.143-0.215-0.281-0.338-0.409l8.01-6.468l10.271-11.784c0.429,0.433,0.841,0.882,1.245,1.34
			C91.486,167.038,91.497,167.97,92.08,168.539z M95.817,174.847c0.354,0.598,1.063,0.849,1.699,0.656
			c0.24,0.631,0.464,1.269,0.661,1.92l-15.259,3.513l-9.586,3.698c-0.069-0.173-0.155-0.334-0.246-0.494l9.339-4.338l12.833-8.959
			c0.384,0.641,0.74,1.299,1.076,1.969c-0.002,0.002-0.003,0.002-0.004,0.003C95.625,173.233,95.396,174.145,95.817,174.847z
			 M98.896,180.276c-0.023,0.006-0.044,0.006-0.064,0.012c-0.788,0.225-1.243,1.048-1.015,1.835c0.196,0.68,0.834,1.109,1.51,1.07
			c0.088,0.904,0.135,1.82,0.14,2.745l-15.645-0.997l-10.243,0.802c-0.021-0.24-0.06-0.472-0.12-0.698l10.111-1.894l14.667-5.519
			C98.494,178.497,98.716,179.379,98.896,180.276z M50.3,163.458c0.053,0.062,0.107,0.123,0.17,0.178
			c0.619,0.536,1.557,0.464,2.092-0.156c0.453-0.53,0.466-1.287,0.078-1.831c0.586-0.409,1.187-0.797,1.803-1.164l7.062,13.914
			l5.907,8.425c-0.161,0.11-0.31,0.239-0.452,0.372l-6.542-7.954l-11.875-10.168C49.106,164.512,49.696,163.976,50.3,163.458z
			 M48.39,165.235l10.403,11.645l7.875,6.632c-0.143,0.167-0.272,0.34-0.386,0.527l-8.459-5.866l-14.217-6.548
			c0.417-0.747,0.86-1.476,1.336-2.182c0.066,0.047,0.134,0.092,0.21,0.129c0.734,0.36,1.623,0.051,1.98-0.685
			c0.309-0.636,0.121-1.385-0.412-1.808C47.253,166.44,47.809,165.827,48.39,165.235z M46.846,205.318
			c0.067-0.054,0.131-0.108,0.189-0.173c0.548-0.607,0.498-1.547-0.113-2.095c-0.533-0.478-1.316-0.501-1.872-0.09
			c-0.334-0.488-0.655-0.986-0.962-1.495l13.979-7.205l8.346-5.929c0.102,0.146,0.219,0.28,0.339,0.411l-7.973,6.439l-10.35,11.875
			C47.879,206.498,47.351,205.918,46.846,205.318z M48.571,207.206l11.83-10.383l6.667-7.777c0.169,0.147,0.346,0.281,0.538,0.398
			l-5.886,8.384l-6.681,14.283c-0.839-0.473-1.652-0.985-2.439-1.535c0.045-0.062,0.09-0.125,0.127-0.196
			c0.375-0.728,0.086-1.623-0.644-1.995c-0.633-0.325-1.387-0.15-1.821,0.377C49.681,208.262,49.113,207.748,48.571,207.206z
			 M67.166,215.83c0.003-0.052,0.011-0.102,0.008-0.156c-0.032-0.816-0.725-1.452-1.544-1.416c-0.694,0.029-1.253,0.532-1.384,1.185
			c-0.657-0.121-1.308-0.257-1.948-0.419l4.893-14.989l1.766-10.073c0.188,0.034,0.381,0.052,0.577,0.058l-1.031,10.183
			l1.161,15.739c-0.003,0-0.005,0-0.007,0C68.818,215.942,67.989,215.898,67.166,215.83z M89.187,208.643
			c-0.044-0.054-0.085-0.108-0.137-0.157c-0.596-0.562-1.537-0.53-2.096,0.068c-0.503,0.537-0.527,1.347-0.091,1.913
			c-0.626,0.443-1.265,0.866-1.924,1.26l-7.132-14.049l-5.874-8.376c0.161-0.115,0.314-0.241,0.457-0.377l6.504,7.911l11.966,10.246
			C90.324,207.625,89.763,208.143,89.187,208.643z M91.003,206.933L80.52,195.199l-7.838-6.601c0.14-0.168,0.267-0.346,0.379-0.537
			l8.43,5.845l14.295,6.585c-0.438,0.796-0.91,1.573-1.418,2.322c-0.047-0.035-0.094-0.072-0.148-0.101
			c-0.719-0.391-1.62-0.12-2.009,0.602c-0.346,0.641-0.171,1.422,0.382,1.861C92.087,205.783,91.554,206.367,91.003,206.933z"/>
	</g>
	<g>
		<path style="fill:#FFFFFF;" d="M171.115,154.915l-5.633,34.865h-5.536l-5.633-34.865h4.613l3.788,26.61l3.788-26.61H171.115z"/>
		<path style="fill:#FFFFFF;" d="M178.691,189.78c-3.756,0-5.633-1.974-5.633-5.924v-22.968c0-3.982,1.861-5.973,5.585-5.973h4.467
			c3.722,0,5.584,1.991,5.584,5.973v22.968c0,3.95-1.878,5.924-5.633,5.924H178.691z M179.807,185.555h2.379
			c1.23,0,1.845-0.68,1.845-2.04v-22.337c0-1.36-0.696-2.039-2.088-2.039h-2.185c-1.36,0-2.04,0.68-2.04,2.039v22.337
			C177.719,184.876,178.415,185.555,179.807,185.555z"/>
		<path style="fill:#FFFFFF;" d="M200.25,159.139v30.641h-4.662v-30.641h-4.468v-4.225h13.597v4.225H200.25z"/>
		<path style="fill:#FFFFFF;" d="M207.388,189.78v-34.865h11.557v4.225h-6.896v10.586h6.119v4.225h-6.119v11.606h6.896v4.225
			H207.388z"/>
	</g>
	<g>
		<path style="fill:#FFFFFF;" d="M133.733,221.299v-26.898h3.596v26.898H133.733z"/>
		<path style="fill:#FFFFFF;" d="M148.156,207.401v-12.999h3.597v26.898h-3.597v-5.357l-3.858-12.251v17.607h-3.596v-26.898h3.596
			L148.156,207.401z"/>
		<path style="fill:#FFFFFF;" d="M155.124,221.299v-26.898h6.256c3.372,0,5.058,1.723,5.058,5.169v17.833
			c0,2.598-1.436,3.896-4.308,3.896H155.124z M158.72,218.04h2.697c0.949,0,1.424-0.399,1.424-1.199v-17.233
			c0-1.298-0.538-1.948-1.611-1.948h-2.51V218.04z"/>
		<path style="fill:#FFFFFF;" d="M169.621,221.299v-26.898h3.596v26.898H169.621z"/>
		<path style="fill:#FFFFFF;" d="M179.998,221.299h-3.596v-22.29c0-3.072,1.436-4.608,4.308-4.608h2.697
			c2.872,0,4.308,1.536,4.308,4.608v22.29h-3.596v-9.853h-4.121V221.299z M184.119,208.188v-8.954c0-1.049-0.524-1.573-1.573-1.573
			h-0.974c-1.049,0-1.574,0.525-1.574,1.573v8.954H184.119z"/>
	</g>
</g>
</svg>
